<mxfile host="app.diagrams.net" modified="2022-12-18T10:26:42.319Z" agent="5.0 (Windows NT 10.0; Win64; x64) AppleWebKit/537.36 (KHTML, like Gecko) Chrome/108.0.0.0 Safari/537.36" etag="YyA45Fp1eEYLg7hmGIgG" version="20.2.7" type="github">
  <diagram id="yAmtqwF_Yq-v7ld6xK_M" name="第 1 页">
    <mxGraphModel dx="569" dy="320" grid="1" gridSize="10" guides="1" tooltips="1" connect="1" arrows="1" fold="1" page="1" pageScale="1" pageWidth="800" pageHeight="450" math="0" shadow="0">
      <root>
        <mxCell id="0" />
        <mxCell id="1" parent="0" />
        <mxCell id="yJTz65Xfa_eojXtFd_zr-1" value="" style="shape=image;verticalLabelPosition=bottom;labelBackgroundColor=default;verticalAlign=top;aspect=fixed;imageAspect=0;image=data:image/svg+xml,PHN2ZyB4bWxuczp4bGluaz0iaHR0cDovL3d3dy53My5vcmcvMTk5OS94bGluayIgeG1sbnM9Imh0dHA6Ly93d3cudzMub3JnLzIwMDAvc3ZnIiBoZWlnaHQ9IjgxMSIgd2lkdGg9IjEwNjAiIHZpZXdCb3g9IjAgMCAxMDYwIDgxMSIgaWQ9InN2ZyI+PGcgdHJhbnNmb3JtPSJ0cmFuc2xhdGUoLTY1LjMwMTI3MDc4MjIwNDcxLC0zNS44MjgxNzY0NDc5OTc2OSkgc2NhbGUoMC44NzA1NTA1NjMyOTYxMjQyKSI+PGcgdHJhbnNmb3JtPSJ0cmFuc2xhdGUoMTQwLDYwKSIgaWQ9Im1haW5ncm91cCI+PGcgdHJhbnNmb3JtPSJ0cmFuc2xhdGUoLTI1LDApIi8+PGcgaWQ9ImJhY2tncm91bmQtZ3JvdXAiPjxnPjxsaW5lIHN0cm9rZS1vcGFjaXR5PSIwLjEiIHN0cm9rZS13aWR0aD0iMSIgc3Ryb2tlPSIjMDAwMDAwIiB4Mj0iNTY0IiB5Mj0iMTkuNzYxOTA0NzYxOTA0NzY2IiB5MT0iMTkuNzYxOTA0NzYxOTA0NzY2IiBjbGFzcz0ieUF4aXMtZ3JpZC1saW5lIi8+PGxpbmUgc3Ryb2tlLW9wYWNpdHk9IjAuMSIgc3Ryb2tlLXdpZHRoPSIxIiBzdHJva2U9IiMwMDAwMDAiIHgyPSI1NjQiIHkyPSI1MC4xNjQ4MzUxNjQ4MzUxNyIgeTE9IjUwLjE2NDgzNTE2NDgzNTE3IiBjbGFzcz0ieUF4aXMtZ3JpZC1saW5lIi8+PGxpbmUgc3Ryb2tlLW9wYWNpdHk9IjAuMSIgc3Ryb2tlLXdpZHRoPSIxIiBzdHJva2U9IiMwMDAwMDAiIHgyPSI1NjQiIHkyPSI4MC41Njc3NjU1Njc3NjU1NiIgeTE9IjgwLjU2Nzc2NTU2Nzc2NTU2IiBjbGFzcz0ieUF4aXMtZ3JpZC1saW5lIi8+PGxpbmUgc3Ryb2tlLW9wYWNpdHk9IjAuMSIgc3Ryb2tlLXdpZHRoPSIxIiBzdHJva2U9IiMwMDAwMDAiIHgyPSI1NjQiIHkyPSIxMTAuOTcwNjk1OTcwNjk1OTciIHkxPSIxMTAuOTcwNjk1OTcwNjk1OTciIGNsYXNzPSJ5QXhpcy1ncmlkLWxpbmUiLz48bGluZSBzdHJva2Utb3BhY2l0eT0iMC4xIiBzdHJva2Utd2lkdGg9IjEiIHN0cm9rZT0iIzAwMDAwMCIgeDI9IjU2NCIgeTI9IjE0MS4zNzM2MjYzNzM2MjYzNyIgeTE9IjE0MS4zNzM2MjYzNzM2MjYzNyIgY2xhc3M9InlBeGlzLWdyaWQtbGluZSIvPjxsaW5lIHN0cm9rZS1vcGFjaXR5PSIwLjEiIHN0cm9rZS13aWR0aD0iMSIgc3Ryb2tlPSIjMDAwMDAwIiB4Mj0iNTY0IiB5Mj0iMTcxLjc3NjU1Njc3NjU1Njc2IiB5MT0iMTcxLjc3NjU1Njc3NjU1Njc2IiBjbGFzcz0ieUF4aXMtZ3JpZC1saW5lIi8+PGxpbmUgc3Ryb2tlLW9wYWNpdHk9IjAuMSIgc3Ryb2tlLXdpZHRoPSIxIiBzdHJva2U9IiMwMDAwMDAiIHgyPSI1NjQiIHkyPSIyMDIuMTc5NDg3MTc5NDg3MTgiIHkxPSIyMDIuMTc5NDg3MTc5NDg3MTgiIGNsYXNzPSJ5QXhpcy1ncmlkLWxpbmUiLz48bGluZSBzdHJva2Utb3BhY2l0eT0iMC4xIiBzdHJva2Utd2lkdGg9IjEiIHN0cm9rZT0iIzAwMDAwMCIgeDI9IjU2NCIgeTI9IjIzMi41ODI0MTc1ODI0MTc1OCIgeTE9IjIzMi41ODI0MTc1ODI0MTc1OCIgY2xhc3M9InlBeGlzLWdyaWQtbGluZSIvPjxsaW5lIHN0cm9rZS1vcGFjaXR5PSIwLjEiIHN0cm9rZS13aWR0aD0iMSIgc3Ryb2tlPSIjMDAwMDAwIiB4Mj0iNTY0IiB5Mj0iMjYyLjk4NTM0Nzk4NTM0Nzk3IiB5MT0iMjYyLjk4NTM0Nzk4NTM0Nzk3IiBjbGFzcz0ieUF4aXMtZ3JpZC1saW5lIi8+PGxpbmUgc3Ryb2tlLW9wYWNpdHk9IjAuMSIgc3Ryb2tlLXdpZHRoPSIxIiBzdHJva2U9IiMwMDAwMDAiIHgyPSI1NjQiIHkyPSIyOTMuMzg4Mjc4Mzg4Mjc4MzciIHkxPSIyOTMuMzg4Mjc4Mzg4Mjc4MzciIGNsYXNzPSJ5QXhpcy1ncmlkLWxpbmUiLz48bGluZSBzdHJva2Utb3BhY2l0eT0iMC4xIiBzdHJva2Utd2lkdGg9IjEiIHN0cm9rZT0iIzAwMDAwMCIgeDI9IjU2NCIgeTI9IjMyMy43OTEyMDg3OTEyMDg3NiIgeTE9IjMyMy43OTEyMDg3OTEyMDg3NiIgY2xhc3M9InlBeGlzLWdyaWQtbGluZSIvPjxsaW5lIHN0cm9rZS1vcGFjaXR5PSIwLjEiIHN0cm9rZS13aWR0aD0iMSIgc3Ryb2tlPSIjMDAwMDAwIiB4Mj0iNTY0IiB5Mj0iMzU0LjE5NDEzOTE5NDEzOTE1IiB5MT0iMzU0LjE5NDEzOTE5NDEzOTE1IiBjbGFzcz0ieUF4aXMtZ3JpZC1saW5lIi8+PGxpbmUgc3Ryb2tlLW9wYWNpdHk9IjAuMSIgc3Ryb2tlLXdpZHRoPSIxIiBzdHJva2U9IiMwMDAwMDAiIHgyPSI1NjQiIHkyPSIzODQuNTk3MDY5NTk3MDY5NiIgeTE9IjM4NC41OTcwNjk1OTcwNjk2IiBjbGFzcz0ieUF4aXMtZ3JpZC1saW5lIi8+PGxpbmUgc3Ryb2tlLW9wYWNpdHk9IjAuMSIgc3Ryb2tlLXdpZHRoPSIxIiBzdHJva2U9IiMwMDAwMDAiIHgyPSI1NjQiIHkyPSI0MTUiIHkxPSI0MTUiIGNsYXNzPSJ5QXhpcy1ncmlkLWxpbmUiLz48bGluZSBzdHJva2Utb3BhY2l0eT0iMC4xIiBzdHJva2Utd2lkdGg9IjEiIHN0cm9rZT0iIzAwMDAwMCIgeDI9IjU2NCIgeTI9IjQ0NS40MDI5MzA0MDI5MzA0IiB5MT0iNDQ1LjQwMjkzMDQwMjkzMDQiIGNsYXNzPSJ5QXhpcy1ncmlkLWxpbmUiLz48bGluZSBzdHJva2Utb3BhY2l0eT0iMC4xIiBzdHJva2Utd2lkdGg9IjEiIHN0cm9rZT0iIzAwMDAwMCIgeDI9IjU2NCIgeTI9IjQ3NS44MDU4NjA4MDU4NjA4IiB5MT0iNDc1LjgwNTg2MDgwNTg2MDgiIGNsYXNzPSJ5QXhpcy1ncmlkLWxpbmUiLz48bGluZSBzdHJva2Utb3BhY2l0eT0iMC4xIiBzdHJva2Utd2lkdGg9IjEiIHN0cm9rZT0iIzAwMDAwMCIgeDI9IjU2NCIgeTI9IjUwNi4yMDg3OTEyMDg3OTEyIiB5MT0iNTA2LjIwODc5MTIwODc5MTIiIGNsYXNzPSJ5QXhpcy1ncmlkLWxpbmUiLz48bGluZSBzdHJva2Utb3BhY2l0eT0iMC4xIiBzdHJva2Utd2lkdGg9IjEiIHN0cm9rZT0iIzAwMDAwMCIgeDI9IjU2NCIgeTI9IjUzNi42MTE3MjE2MTE3MjE2IiB5MT0iNTM2LjYxMTcyMTYxMTcyMTYiIGNsYXNzPSJ5QXhpcy1ncmlkLWxpbmUiLz48bGluZSBzdHJva2Utb3BhY2l0eT0iMC4xIiBzdHJva2Utd2lkdGg9IjEiIHN0cm9rZT0iIzAwMDAwMCIgeDI9IjU2NCIgeTI9IjU2Ny4wMTQ2NTIwMTQ2NTIiIHkxPSI1NjcuMDE0NjUyMDE0NjUyIiBjbGFzcz0ieUF4aXMtZ3JpZC1saW5lIi8+PGxpbmUgc3Ryb2tlLW9wYWNpdHk9IjAuMSIgc3Ryb2tlLXdpZHRoPSIxIiBzdHJva2U9IiMwMDAwMDAiIHgyPSI1NjQiIHkyPSI1OTcuNDE3NTgyNDE3NTgyNSIgeTE9IjU5Ny40MTc1ODI0MTc1ODI1IiBjbGFzcz0ieUF4aXMtZ3JpZC1saW5lIi8+PGxpbmUgc3Ryb2tlLW9wYWNpdHk9IjAuMSIgc3Ryb2tlLXdpZHRoPSIxIiBzdHJva2U9IiMwMDAwMDAiIHgyPSI1NjQiIHkyPSI2MjcuODIwNTEyODIwNTEyNyIgeTE9IjYyNy44MjA1MTI4MjA1MTI3IiBjbGFzcz0ieUF4aXMtZ3JpZC1saW5lIi8+PGxpbmUgc3Ryb2tlLW9wYWNpdHk9IjAuMSIgc3Ryb2tlLXdpZHRoPSIxIiBzdHJva2U9IiMwMDAwMDAiIHgyPSI1NjQiIHkyPSI2NTguMjIzNDQzMjIzNDQzMiIgeTE9IjY1OC4yMjM0NDMyMjM0NDMyIiBjbGFzcz0ieUF4aXMtZ3JpZC1saW5lIi8+PGxpbmUgc3Ryb2tlLW9wYWNpdHk9IjAuMSIgc3Ryb2tlLXdpZHRoPSIxIiBzdHJva2U9IiMwMDAwMDAiIHgyPSI1NjQiIHkyPSI2ODguNjI2MzczNjI2MzczNiIgeTE9IjY4OC42MjYzNzM2MjYzNzM2IiBjbGFzcz0ieUF4aXMtZ3JpZC1saW5lIi8+PGxpbmUgc3Ryb2tlLW9wYWNpdHk9IjAuMSIgc3Ryb2tlLXdpZHRoPSIxIiBzdHJva2U9IiMwMDAwMDAiIHgyPSI1NjQiIHkyPSI3MTkuMDI5MzA0MDI5MzA0MSIgeTE9IjcxOS4wMjkzMDQwMjkzMDQxIiBjbGFzcz0ieUF4aXMtZ3JpZC1saW5lIi8+PGxpbmUgc3Ryb2tlLW9wYWNpdHk9IjAuMSIgc3Ryb2tlLXdpZHRoPSIxIiBzdHJva2U9IiMwMDAwMDAiIHgyPSI1NjQiIHkyPSI3NDkuNDMyMjM0NDMyMjM0NSIgeTE9Ijc0OS40MzIyMzQ0MzIyMzQ1IiBjbGFzcz0ieUF4aXMtZ3JpZC1saW5lIi8+PGxpbmUgc3Ryb2tlLW9wYWNpdHk9IjAuMSIgc3Ryb2tlLXdpZHRoPSIxIiBzdHJva2U9IiMwMDAwMDAiIHgyPSI1NjQiIHkyPSI3NzkuODM1MTY0ODM1MTY0NyIgeTE9Ijc3OS44MzUxNjQ4MzUxNjQ3IiBjbGFzcz0ieUF4aXMtZ3JpZC1saW5lIi8+PGxpbmUgc3Ryb2tlLW9wYWNpdHk9IjAuMSIgc3Ryb2tlLXdpZHRoPSIxIiBzdHJva2U9IiMwMDAwMDAiIHgyPSI1NjQiIHkyPSI4MTAuMjM4MDk1MjM4MDk1MiIgeTE9IjgxMC4yMzgwOTUyMzgwOTUyIiBjbGFzcz0ieUF4aXMtZ3JpZC1saW5lIi8+PC9nPjxnPjxsaW5lIHN0cm9rZS1vcGFjaXR5PSIwLjEiIHN0cm9rZS13aWR0aD0iMSIgc3Ryb2tlPSIjMDAwMDAwIiB5Mj0iODMwIiB4Mj0iMCIgeDE9IjAiIGNsYXNzPSJ4QXhpcy1ncmlkLWxpbmUiLz48bGluZSBzdHJva2Utb3BhY2l0eT0iMC4xIiBzdHJva2Utd2lkdGg9IjEiIHN0cm9rZT0iIzAwMDAwMCIgeTI9IjgzMCIgeDI9IjUwLjE3NzkzNTk0MzA2MDUwNCIgeDE9IjUwLjE3NzkzNTk0MzA2MDUwNCIgY2xhc3M9InhBeGlzLWdyaWQtbGluZSIvPjxsaW5lIHN0cm9rZS1vcGFjaXR5PSIwLjEiIHN0cm9rZS13aWR0aD0iMSIgc3Ryb2tlPSIjMDAwMDAwIiB5Mj0iODMwIiB4Mj0iMTAwLjM1NTg3MTg4NjEyMTAxIiB4MT0iMTAwLjM1NTg3MTg4NjEyMTAxIiBjbGFzcz0ieEF4aXMtZ3JpZC1saW5lIi8+PGxpbmUgc3Ryb2tlLW9wYWNpdHk9IjAuMSIgc3Ryb2tlLXdpZHRoPSIxIiBzdHJva2U9IiMwMDAwMDAiIHkyPSI4MzAiIHgyPSIxNTAuNTMzODA3ODI5MTgxNDgiIHgxPSIxNTAuNTMzODA3ODI5MTgxNDgiIGNsYXNzPSJ4QXhpcy1ncmlkLWxpbmUiLz48bGluZSBzdHJva2Utb3BhY2l0eT0iMC4xIiBzdHJva2Utd2lkdGg9IjEiIHN0cm9rZT0iIzAwMDAwMCIgeTI9IjgzMCIgeDI9IjIwMC43MTE3NDM3NzIyNDIwMiIgeDE9IjIwMC43MTE3NDM3NzIyNDIwMiIgY2xhc3M9InhBeGlzLWdyaWQtbGluZSIvPjxsaW5lIHN0cm9rZS1vcGFjaXR5PSIwLjEiIHN0cm9rZS13aWR0aD0iMSIgc3Ryb2tlPSIjMDAwMDAwIiB5Mj0iODMwIiB4Mj0iMjUwLjg4OTY3OTcxNTMwMjUiIHgxPSIyNTAuODg5Njc5NzE1MzAyNSIgY2xhc3M9InhBeGlzLWdyaWQtbGluZSIvPjxsaW5lIHN0cm9rZS1vcGFjaXR5PSIwLjEiIHN0cm9rZS13aWR0aD0iMSIgc3Ryb2tlPSIjMDAwMDAwIiB5Mj0iODMwIiB4Mj0iMzAxLjA2NzYxNTY1ODM2Mjk3IiB4MT0iMzAxLjA2NzYxNTY1ODM2Mjk3IiBjbGFzcz0ieEF4aXMtZ3JpZC1saW5lIi8+PGxpbmUgc3Ryb2tlLW9wYWNpdHk9IjAuMSIgc3Ryb2tlLXdpZHRoPSIxIiBzdHJva2U9IiMwMDAwMDAiIHkyPSI4MzAiIHgyPSIzNTEuMjQ1NTUxNjAxNDIzNSIgeDE9IjM1MS4yNDU1NTE2MDE0MjM1IiBjbGFzcz0ieEF4aXMtZ3JpZC1saW5lIi8+PGxpbmUgc3Ryb2tlLW9wYWNpdHk9IjAuMSIgc3Ryb2tlLXdpZHRoPSIxIiBzdHJva2U9IiMwMDAwMDAiIHkyPSI4MzAiIHgyPSI0MDEuNDIzNDg3NTQ0NDg0MDMiIHgxPSI0MDEuNDIzNDg3NTQ0NDg0MDMiIGNsYXNzPSJ4QXhpcy1ncmlkLWxpbmUiLz48bGluZSBzdHJva2Utb3BhY2l0eT0iMC4xIiBzdHJva2Utd2lkdGg9IjEiIHN0cm9rZT0iIzAwMDAwMCIgeTI9IjgzMCIgeDI9IjQ1MS42MDE0MjM0ODc1NDQ1IiB4MT0iNDUxLjYwMTQyMzQ4NzU0NDUiIGNsYXNzPSJ4QXhpcy1ncmlkLWxpbmUiLz48bGluZSBzdHJva2Utb3BhY2l0eT0iMC4xIiBzdHJva2Utd2lkdGg9IjEiIHN0cm9rZT0iIzAwMDAwMCIgeTI9IjgzMCIgeDI9IjUwMS43NzkzNTk0MzA2MDUiIHgxPSI1MDEuNzc5MzU5NDMwNjA1IiBjbGFzcz0ieEF4aXMtZ3JpZC1saW5lIi8+PGxpbmUgc3Ryb2tlLW9wYWNpdHk9IjAuMSIgc3Ryb2tlLXdpZHRoPSIxIiBzdHJva2U9IiMwMDAwMDAiIHkyPSI4MzAiIHgyPSI1NTEuOTU3Mjk1MzczNjY1NSIgeDE9IjU1MS45NTcyOTUzNzM2NjU1IiBjbGFzcz0ieEF4aXMtZ3JpZC1saW5lIi8+PC9nPjwvZz48Zz48ZyBzdHJva2Utd2lkdGg9IjAiIHN0cm9rZT0iIzAwMDAwMCIgZmlsbC1vcGFjaXR5PSIxIiBmaWxsPSIjZmM4ZDYyIiBjbGFzcz0ic3RhY2tlZC1iYXIiPjx0aXRsZT5wb3NpdGl2ZTwvdGl0bGU+PHJlY3QgeD0iMCIgaGVpZ2h0PSIyMS4yODIwNTEyODIwNTEyOCIgd2lkdGg9IjUyOC4xMjI3NzU4MDA3MTE4IiB5PSI5LjEyMDg3OTEyMDg3OTEyNCIvPjxyZWN0IHg9IjAiIGhlaWdodD0iMjEuMjgyMDUxMjgyMDUxMjgiIHdpZHRoPSI1MjUuMTEyMDk5NjQ0MTI4MSIgeT0iMzkuNTIzODA5NTIzODA5NTI2Ii8+PHJlY3QgeD0iMCIgaGVpZ2h0PSIyMS4yODIwNTEyODIwNTEyOCIgd2lkdGg9IjUxOS44NDM0MTYzNzAxMDY4IiB5PSI2OS45MjY3Mzk5MjY3Mzk5MyIvPjxyZWN0IHg9IjAiIGhlaWdodD0iMjEuMjgyMDUxMjgyMDUxMjgiIHdpZHRoPSI1MTMuMzIwMjg0Njk3NTA4OSIgeT0iMTAwLjMyOTY3MDMyOTY3MDM0Ii8+PHJlY3QgeD0iMCIgaGVpZ2h0PSIyMS4yODIwNTEyODIwNTEyOCIgd2lkdGg9IjUwOS44MDc4MjkxODE0OTQ2NCIgeT0iMTMwLjczMjYwMDczMjYwMDczIi8+PHJlY3QgeD0iMCIgaGVpZ2h0PSIyMS4yODIwNTEyODIwNTEyOCIgd2lkdGg9IjQ3My4xNzc5MzU5NDMwNjA1IiB5PSIxNjEuMTM1NTMxMTM1NTMxMTIiLz48cmVjdCB4PSIwIiBoZWlnaHQ9IjIxLjI4MjA1MTI4MjA1MTI4IiB3aWR0aD0iNDY2LjY1NDgwNDI3MDQ2MjYiIHk9IjE5MS41Mzg0NjE1Mzg0NjE1NSIvPjxyZWN0IHg9IjAiIGhlaWdodD0iMjEuMjgyMDUxMjgyMDUxMjgiIHdpZHRoPSI0NDMuMDcxMTc0Mzc3MjI0MiIgeT0iMjIxLjk0MTM5MTk0MTM5MTk0Ii8+PHJlY3QgeD0iMCIgaGVpZ2h0PSIyMS4yODIwNTEyODIwNTEyOCIgd2lkdGg9IjQzOC41NTUxNjAxNDIzNDg3NyIgeT0iMjUyLjM0NDMyMjM0NDMyMjM0Ii8+PHJlY3QgeD0iMCIgaGVpZ2h0PSIyMS4yODIwNTEyODIwNTEyOCIgd2lkdGg9IjQyOC4wMTc3OTM1OTQzMDYwNiIgeT0iMjgyLjc0NzI1Mjc0NzI1MjczIi8+PHJlY3QgeD0iMCIgaGVpZ2h0PSIyMS4yODIwNTEyODIwNTEyOCIgd2lkdGg9IjQyOS4wMjEzNTIzMTMxNjcyNiIgeT0iMzEzLjE1MDE4MzE1MDE4MzEiLz48cmVjdCB4PSIwIiBoZWlnaHQ9IjIxLjI4MjA1MTI4MjA1MTI4IiB3aWR0aD0iNDEwLjcwNjQwNTY5Mzk1MDE2IiB5PSIzNDMuNTUzMTEzNTUzMTEzNSIvPjxyZWN0IHg9IjAiIGhlaWdodD0iMjEuMjgyMDUxMjgyMDUxMjgiIHdpZHRoPSI0MDkuNDUxOTU3Mjk1MzczNyIgeT0iMzczLjk1NjA0Mzk1NjA0Mzk3Ii8+PHJlY3QgeD0iMCIgaGVpZ2h0PSIyMS4yODIwNTEyODIwNTEyOCIgd2lkdGg9IjM5Mi4xNDA1NjkzOTUwMTc4IiB5PSI0MDQuMzU4OTc0MzU4OTc0MzYiLz48cmVjdCB4PSIwIiBoZWlnaHQ9IjIxLjI4MjA1MTI4MjA1MTI4IiB3aWR0aD0iMzc5Ljg0Njk3NTA4ODk2Nzk1IiB5PSI0MzQuNzYxOTA0NzYxOTA0NzYiLz48cmVjdCB4PSIwIiBoZWlnaHQ9IjIxLjI4MjA1MTI4MjA1MTI4IiB3aWR0aD0iMzYwLjI3NzU4MDA3MTE3NDQiIHk9IjQ2NS4xNjQ4MzUxNjQ4MzUxNSIvPjxyZWN0IHg9IjAiIGhlaWdodD0iMjEuMjgyMDUxMjgyMDUxMjgiIHdpZHRoPSIzNjYuODAwNzExNzQzNzcyMjQiIHk9IjQ5NS41Njc3NjU1Njc3NjU1NSIvPjxyZWN0IHg9IjAiIGhlaWdodD0iMjEuMjgyMDUxMjgyMDUxMjgiIHdpZHRoPSIyOTkuNTYyMjc3NTgwMDcxMTciIHk9IjUyNS45NzA2OTU5NzA2OTU5Ii8+PHJlY3QgeD0iMCIgaGVpZ2h0PSIyMS4yODIwNTEyODIwNTEyOCIgd2lkdGg9IjI5Mi41MzczNjY1NDgwNDI3IiB5PSI1NTYuMzczNjI2MzczNjI2NCIvPjxyZWN0IHg9IjAiIGhlaWdodD0iMjEuMjgyMDUxMjgyMDUxMjgiIHdpZHRoPSIyNzEuNzEzNTIzMTMxNjcyNiIgeT0iNTg2Ljc3NjU1Njc3NjU1NjgiLz48cmVjdCB4PSIwIiBoZWlnaHQ9IjIxLjI4MjA1MTI4MjA1MTI4IiB3aWR0aD0iMjU5LjE2OTAzOTE0NTkwNzQ1IiB5PSI2MTcuMTc5NDg3MTc5NDg3MSIvPjxyZWN0IHg9IjAiIGhlaWdodD0iMjEuMjgyMDUxMjgyMDUxMjgiIHdpZHRoPSIxODcuMTYzNzAxMDY3NjE1NjgiIHk9IjY0Ny41ODI0MTc1ODI0MTc1Ii8+PHJlY3QgeD0iMCIgaGVpZ2h0PSIyMS4yODIwNTEyODIwNTEyOCIgd2lkdGg9IjEyNi45NTAxNzc5MzU5NDMwNiIgeT0iNjc3Ljk4NTM0Nzk4NTM0OCIvPjxyZWN0IHg9IjAiIGhlaWdodD0iMjEuMjgyMDUxMjgyMDUxMjgiIHdpZHRoPSIxMjEuMTc5NzE1MzAyNDkxMDkiIHk9IjcwOC4zODgyNzgzODgyNzg0Ii8+PHJlY3QgeD0iMCIgaGVpZ2h0PSIyMS4yODIwNTEyODIwNTEyOCIgd2lkdGg9Ijc2LjUyMTM1MjMxMzE2NzI2IiB5PSI3MzguNzkxMjA4NzkxMjA4OSIvPjxyZWN0IHg9IjAiIGhlaWdodD0iMjEuMjgyMDUxMjgyMDUxMjgiIHdpZHRoPSI2NC4yMjc3NTgwMDcxMTc0MyIgeT0iNzY5LjE5NDEzOTE5NDEzOTEiLz48cmVjdCB4PSIwIiBoZWlnaHQ9IjIxLjI4MjA1MTI4MjA1MTI4IiB3aWR0aD0iMTMuMDQ2MjYzMzQ1MTk1NzMiIHk9Ijc5OS41OTcwNjk1OTcwNjk1Ii8+PHRleHQgeG1sOnNwYWNlPSJwcmVzZXJ2ZSIgZm9udC1zdHlsZT0ibm9ybWFsIiBmb250LXdlaWdodD0iYm9sZCIgZmlsbD0iIzAwMDAwMCIgZm9udC1zaXplPSIxNiIgY2xhc3M9ImJhci10ZXh0LXN0eWxlIiB0ZXh0LWFuY2hvcj0ibWlkZGxlIiBkeT0iMC4zNWVtIiB4PSIyNjQuMDYxMzg3OTAwMzU1OSIgeT0iMTkuNzYxOTA0NzYxOTA0NzY2Ij4yMTA1PC90ZXh0Pjx0ZXh0IHhtbDpzcGFjZT0icHJlc2VydmUiIGZvbnQtc3R5bGU9Im5vcm1hbCIgZm9udC13ZWlnaHQ9ImJvbGQiIGZpbGw9IiMwMDAwMDAiIGZvbnQtc2l6ZT0iMTYiIGNsYXNzPSJiYXItdGV4dC1zdHlsZSIgdGV4dC1hbmNob3I9Im1pZGRsZSIgZHk9IjAuMzVlbSIgeD0iMjYyLjU1NjA0OTgyMjA2NDA0IiB5PSI1MC4xNjQ4MzUxNjQ4MzUxNyI+MjA5MzwvdGV4dD48dGV4dCB4bWw6c3BhY2U9InByZXNlcnZlIiBmb250LXN0eWxlPSJub3JtYWwiIGZvbnQtd2VpZ2h0PSJib2xkIiBmaWxsPSIjMDAwMDAwIiBmb250LXNpemU9IjE2IiBjbGFzcz0iYmFyLXRleHQtc3R5bGUiIHRleHQtYW5jaG9yPSJtaWRkbGUiIGR5PSIwLjM1ZW0iIHg9IjI1OS45MjE3MDgxODUwNTM0IiB5PSI4MC41Njc3NjU1Njc3NjU1NiI+MjA3MjwvdGV4dD48dGV4dCB4bWw6c3BhY2U9InByZXNlcnZlIiBmb250LXN0eWxlPSJub3JtYWwiIGZvbnQtd2VpZ2h0PSJib2xkIiBmaWxsPSIjMDAwMDAwIiBmb250LXNpemU9IjE2IiBjbGFzcz0iYmFyLXRleHQtc3R5bGUiIHRleHQtYW5jaG9yPSJtaWRkbGUiIGR5PSIwLjM1ZW0iIHg9IjI1Ni42NjAxNDIzNDg3NTQ0NSIgeT0iMTEwLjk3MDY5NTk3MDY5NTk3Ij4yMDQ2PC90ZXh0Pjx0ZXh0IHhtbDpzcGFjZT0icHJlc2VydmUiIGZvbnQtc3R5bGU9Im5vcm1hbCIgZm9udC13ZWlnaHQ9ImJvbGQiIGZpbGw9IiMwMDAwMDAiIGZvbnQtc2l6ZT0iMTYiIGNsYXNzPSJiYXItdGV4dC1zdHlsZSIgdGV4dC1hbmNob3I9Im1pZGRsZSIgZHk9IjAuMzVlbSIgeD0iMjU0LjkwMzkxNDU5MDc0NzMyIiB5PSIxNDEuMzczNjI2MzczNjI2MzciPjIwMzI8L3RleHQ+PHRleHQgeG1sOnNwYWNlPSJwcmVzZXJ2ZSIgZm9udC1zdHlsZT0ibm9ybWFsIiBmb250LXdlaWdodD0iYm9sZCIgZmlsbD0iIzAwMDAwMCIgZm9udC1zaXplPSIxNiIgY2xhc3M9ImJhci10ZXh0LXN0eWxlIiB0ZXh0LWFuY2hvcj0ibWlkZGxlIiBkeT0iMC4zNWVtIiB4PSIyMzYuNTg4OTY3OTcxNTMwMjUiIHk9IjE3MS43NzY1NTY3NzY1NTY3NiI+MTg4NjwvdGV4dD48dGV4dCB4bWw6c3BhY2U9InByZXNlcnZlIiBmb250LXN0eWxlPSJub3JtYWwiIGZvbnQtd2VpZ2h0PSJib2xkIiBmaWxsPSIjMDAwMDAwIiBmb250LXNpemU9IjE2IiBjbGFzcz0iYmFyLXRleHQtc3R5bGUiIHRleHQtYW5jaG9yPSJtaWRkbGUiIGR5PSIwLjM1ZW0iIHg9IjIzMy4zMjc0MDIxMzUyMzEzIiB5PSIyMDIuMTc5NDg3MTc5NDg3MTgiPjE4NjA8L3RleHQ+PHRleHQgeG1sOnNwYWNlPSJwcmVzZXJ2ZSIgZm9udC1zdHlsZT0ibm9ybWFsIiBmb250LXdlaWdodD0iYm9sZCIgZmlsbD0iIzAwMDAwMCIgZm9udC1zaXplPSIxNiIgY2xhc3M9ImJhci10ZXh0LXN0eWxlIiB0ZXh0LWFuY2hvcj0ibWlkZGxlIiBkeT0iMC4zNWVtIiB4PSIyMjEuNTM1NTg3MTg4NjEyMSIgeT0iMjMyLjU4MjQxNzU4MjQxNzU4Ij4xNzY2PC90ZXh0Pjx0ZXh0IHhtbDpzcGFjZT0icHJlc2VydmUiIGZvbnQtc3R5bGU9Im5vcm1hbCIgZm9udC13ZWlnaHQ9ImJvbGQiIGZpbGw9IiMwMDAwMDAiIGZvbnQtc2l6ZT0iMTYiIGNsYXNzPSJiYXItdGV4dC1zdHlsZSIgdGV4dC1hbmNob3I9Im1pZGRsZSIgZHk9IjAuMzVlbSIgeD0iMjE5LjI3NzU4MDA3MTE3NDM4IiB5PSIyNjIuOTg1MzQ3OTg1MzQ3OTciPjE3NDg8L3RleHQ+PHRleHQgeG1sOnNwYWNlPSJwcmVzZXJ2ZSIgZm9udC1zdHlsZT0ibm9ybWFsIiBmb250LXdlaWdodD0iYm9sZCIgZmlsbD0iIzAwMDAwMCIgZm9udC1zaXplPSIxNiIgY2xhc3M9ImJhci10ZXh0LXN0eWxlIiB0ZXh0LWFuY2hvcj0ibWlkZGxlIiBkeT0iMC4zNWVtIiB4PSIyMTQuMDA4ODk2Nzk3MTUzMDMiIHk9IjI5My4zODgyNzgzODgyNzgzNyI+MTcwNjwvdGV4dD48dGV4dCB4bWw6c3BhY2U9InByZXNlcnZlIiBmb250LXN0eWxlPSJub3JtYWwiIGZvbnQtd2VpZ2h0PSJib2xkIiBmaWxsPSIjMDAwMDAwIiBmb250LXNpemU9IjE2IiBjbGFzcz0iYmFyLXRleHQtc3R5bGUiIHRleHQtYW5jaG9yPSJtaWRkbGUiIGR5PSIwLjM1ZW0iIHg9IjIxNC41MTA2NzYxNTY1ODM2MyIgeT0iMzIzLjc5MTIwODc5MTIwODc2Ij4xNzEwPC90ZXh0Pjx0ZXh0IHhtbDpzcGFjZT0icHJlc2VydmUiIGZvbnQtc3R5bGU9Im5vcm1hbCIgZm9udC13ZWlnaHQ9ImJvbGQiIGZpbGw9IiMwMDAwMDAiIGZvbnQtc2l6ZT0iMTYiIGNsYXNzPSJiYXItdGV4dC1zdHlsZSIgdGV4dC1hbmNob3I9Im1pZGRsZSIgZHk9IjAuMzVlbSIgeD0iMjA1LjM1MzIwMjg0Njk3NTA4IiB5PSIzNTQuMTk0MTM5MTk0MTM5MTUiPjE2Mzc8L3RleHQ+PHRleHQgeG1sOnNwYWNlPSJwcmVzZXJ2ZSIgZm9udC1zdHlsZT0ibm9ybWFsIiBmb250LXdlaWdodD0iYm9sZCIgZmlsbD0iIzAwMDAwMCIgZm9udC1zaXplPSIxNiIgY2xhc3M9ImJhci10ZXh0LXN0eWxlIiB0ZXh0LWFuY2hvcj0ibWlkZGxlIiBkeT0iMC4zNWVtIiB4PSIyMDQuNzI1OTc4NjQ3Njg2ODQiIHk9IjM4NC41OTcwNjk1OTcwNjk2Ij4xNjMyPC90ZXh0Pjx0ZXh0IHhtbDpzcGFjZT0icHJlc2VydmUiIGZvbnQtc3R5bGU9Im5vcm1hbCIgZm9udC13ZWlnaHQ9ImJvbGQiIGZpbGw9IiMwMDAwMDAiIGZvbnQtc2l6ZT0iMTYiIGNsYXNzPSJiYXItdGV4dC1zdHlsZSIgdGV4dC1hbmNob3I9Im1pZGRsZSIgZHk9IjAuMzVlbSIgeD0iMTk2LjA3MDI4NDY5NzUwODkiIHk9IjQxNSI+MTU2MzwvdGV4dD48dGV4dCB4bWw6c3BhY2U9InByZXNlcnZlIiBmb250LXN0eWxlPSJub3JtYWwiIGZvbnQtd2VpZ2h0PSJib2xkIiBmaWxsPSIjMDAwMDAwIiBmb250LXNpemU9IjE2IiBjbGFzcz0iYmFyLXRleHQtc3R5bGUiIHRleHQtYW5jaG9yPSJtaWRkbGUiIGR5PSIwLjM1ZW0iIHg9IjE4OS45MjM0ODc1NDQ0ODM5OCIgeT0iNDQ1LjQwMjkzMDQwMjkzMDQiPjE1MTQ8L3RleHQ+PHRleHQgeG1sOnNwYWNlPSJwcmVzZXJ2ZSIgZm9udC1zdHlsZT0ibm9ybWFsIiBmb250LXdlaWdodD0iYm9sZCIgZmlsbD0iIzAwMDAwMCIgZm9udC1zaXplPSIxNiIgY2xhc3M9ImJhci10ZXh0LXN0eWxlIiB0ZXh0LWFuY2hvcj0ibWlkZGxlIiBkeT0iMC4zNWVtIiB4PSIxODAuMTM4NzkwMDM1NTg3MiIgeT0iNDc1LjgwNTg2MDgwNTg2MDgiPjE0MzY8L3RleHQ+PHRleHQgeG1sOnNwYWNlPSJwcmVzZXJ2ZSIgZm9udC1zdHlsZT0ibm9ybWFsIiBmb250LXdlaWdodD0iYm9sZCIgZmlsbD0iIzAwMDAwMCIgZm9udC1zaXplPSIxNiIgY2xhc3M9ImJhci10ZXh0LXN0eWxlIiB0ZXh0LWFuY2hvcj0ibWlkZGxlIiBkeT0iMC4zNWVtIiB4PSIxODMuNDAwMzU1ODcxODg2MTIiIHk9IjUwNi4yMDg3OTEyMDg3OTEyIj4xNDYyPC90ZXh0Pjx0ZXh0IHhtbDpzcGFjZT0icHJlc2VydmUiIGZvbnQtc3R5bGU9Im5vcm1hbCIgZm9udC13ZWlnaHQ9ImJvbGQiIGZpbGw9IiMwMDAwMDAiIGZvbnQtc2l6ZT0iMTYiIGNsYXNzPSJiYXItdGV4dC1zdHlsZSIgdGV4dC1hbmNob3I9Im1pZGRsZSIgZHk9IjAuMzVlbSIgeD0iMTQ5Ljc4MTEzODc5MDAzNTU4IiB5PSI1MzYuNjExNzIxNjExNzIxNiI+MTE5NDwvdGV4dD48dGV4dCB4bWw6c3BhY2U9InByZXNlcnZlIiBmb250LXN0eWxlPSJub3JtYWwiIGZvbnQtd2VpZ2h0PSJib2xkIiBmaWxsPSIjMDAwMDAwIiBmb250LXNpemU9IjE2IiBjbGFzcz0iYmFyLXRleHQtc3R5bGUiIHRleHQtYW5jaG9yPSJtaWRkbGUiIGR5PSIwLjM1ZW0iIHg9IjE0Ni4yNjg2ODMyNzQwMjEzNiIgeT0iNTY3LjAxNDY1MjAxNDY1MiI+MTE2NjwvdGV4dD48dGV4dCB4bWw6c3BhY2U9InByZXNlcnZlIiBmb250LXN0eWxlPSJub3JtYWwiIGZvbnQtd2VpZ2h0PSJib2xkIiBmaWxsPSIjMDAwMDAwIiBmb250LXNpemU9IjE2IiBjbGFzcz0iYmFyLXRleHQtc3R5bGUiIHRleHQtYW5jaG9yPSJtaWRkbGUiIGR5PSIwLjM1ZW0iIHg9IjEzNS44NTY3NjE1NjU4MzYzIiB5PSI1OTcuNDE3NTgyNDE3NTgyNSI+MTA4MzwvdGV4dD48dGV4dCB4bWw6c3BhY2U9InByZXNlcnZlIiBmb250LXN0eWxlPSJub3JtYWwiIGZvbnQtd2VpZ2h0PSJib2xkIiBmaWxsPSIjMDAwMDAwIiBmb250LXNpemU9IjE2IiBjbGFzcz0iYmFyLXRleHQtc3R5bGUiIHRleHQtYW5jaG9yPSJtaWRkbGUiIGR5PSIwLjM1ZW0iIHg9IjEyOS41ODQ1MTk1NzI5NTM3MiIgeT0iNjI3LjgyMDUxMjgyMDUxMjciPjEwMzM8L3RleHQ+PHRleHQgeG1sOnNwYWNlPSJwcmVzZXJ2ZSIgZm9udC1zdHlsZT0ibm9ybWFsIiBmb250LXdlaWdodD0iYm9sZCIgZmlsbD0iIzAwMDAwMCIgZm9udC1zaXplPSIxNiIgY2xhc3M9ImJhci10ZXh0LXN0eWxlIiB0ZXh0LWFuY2hvcj0ibWlkZGxlIiBkeT0iMC4zNWVtIiB4PSI5My41ODE4NTA1MzM4MDc4NCIgeT0iNjU4LjIyMzQ0MzIyMzQ0MzIiPjc0NjwvdGV4dD48dGV4dCB4bWw6c3BhY2U9InByZXNlcnZlIiBmb250LXN0eWxlPSJub3JtYWwiIGZvbnQtd2VpZ2h0PSJib2xkIiBmaWxsPSIjMDAwMDAwIiBmb250LXNpemU9IjE2IiBjbGFzcz0iYmFyLXRleHQtc3R5bGUiIHRleHQtYW5jaG9yPSJtaWRkbGUiIGR5PSIwLjM1ZW0iIHg9IjYzLjQ3NTA4ODk2Nzk3MTUzIiB5PSI2ODguNjI2MzczNjI2MzczNiI+NTA2PC90ZXh0Pjx0ZXh0IHhtbDpzcGFjZT0icHJlc2VydmUiIGZvbnQtc3R5bGU9Im5vcm1hbCIgZm9udC13ZWlnaHQ9ImJvbGQiIGZpbGw9IiMwMDAwMDAiIGZvbnQtc2l6ZT0iMTYiIGNsYXNzPSJiYXItdGV4dC1zdHlsZSIgdGV4dC1hbmNob3I9Im1pZGRsZSIgZHk9IjAuMzVlbSIgeD0iNjAuNTg5ODU3NjUxMjQ1NTQ1IiB5PSI3MTkuMDI5MzA0MDI5MzA0MSI+NDgzPC90ZXh0Pjx0ZXh0IHhtbDpzcGFjZT0icHJlc2VydmUiIGZvbnQtc3R5bGU9Im5vcm1hbCIgZm9udC13ZWlnaHQ9ImJvbGQiIGZpbGw9IiMwMDAwMDAiIGZvbnQtc2l6ZT0iMTYiIGNsYXNzPSJiYXItdGV4dC1zdHlsZSIgdGV4dC1hbmNob3I9Im1pZGRsZSIgZHk9IjAuMzVlbSIgeD0iMzguMjYwNjc2MTU2NTgzNjMiIHk9Ijc0OS40MzIyMzQ0MzIyMzQ1Ij4zMDU8L3RleHQ+PHRleHQgeG1sOnNwYWNlPSJwcmVzZXJ2ZSIgZm9udC1zdHlsZT0ibm9ybWFsIiBmb250LXdlaWdodD0iYm9sZCIgZmlsbD0iIzAwMDAwMCIgZm9udC1zaXplPSIxNiIgY2xhc3M9ImJhci10ZXh0LXN0eWxlIiB0ZXh0LWFuY2hvcj0ibWlkZGxlIiBkeT0iMC4zNWVtIiB4PSIzMi4xMTM4NzkwMDM1NTg3MTUiIHk9Ijc3OS44MzUxNjQ4MzUxNjQ3Ij4yNTY8L3RleHQ+PHRleHQgeG1sOnNwYWNlPSJwcmVzZXJ2ZSIgZm9udC1zdHlsZT0ibm9ybWFsIiBmb250LXdlaWdodD0iYm9sZCIgZmlsbD0iIzAwMDAwMCIgZm9udC1zaXplPSIxNiIgY2xhc3M9ImJhci10ZXh0LXN0eWxlIiB0ZXh0LWFuY2hvcj0ibWlkZGxlIiBkeT0iMC4zNWVtIiB4PSI2LjUyMzEzMTY3MjU5Nzg2NSIgeT0iODEwLjIzODA5NTIzODA5NTIiPjUyPC90ZXh0PjwvZz48ZyBzdHJva2Utd2lkdGg9IjAiIHN0cm9rZT0iIzAwMDAwMCIgZmlsbC1vcGFjaXR5PSIxIiBmaWxsPSIjNjZjMmE1IiBjbGFzcz0ic3RhY2tlZC1iYXIiPjx0aXRsZT5uZWdhdGl2ZTwvdGl0bGU+PHJlY3QgeD0iNTI4LjEyMjc3NTgwMDcxMTgiIGhlaWdodD0iMjEuMjgyMDUxMjgyMDUxMjgiIHdpZHRoPSIzNS44NzcyMjQxOTkyODgyMSIgeT0iOS4xMjA4NzkxMjA4NzkxMjQiLz48cmVjdCB4PSI1MjUuMTEyMDk5NjQ0MTI4MSIgaGVpZ2h0PSIyMS4yODIwNTEyODIwNTEyOCIgd2lkdGg9IjM4Ljg4NzkwMDM1NTg3MTkyIiB5PSIzOS41MjM4MDk1MjM4MDk1MjYiLz48cmVjdCB4PSI1MTkuODQzNDE2MzcwMTA2OCIgaGVpZ2h0PSIyMS4yODIwNTEyODIwNTEyOCIgd2lkdGg9IjQ0LjE1NjU4MzYyOTg5MzI1IiB5PSI2OS45MjY3Mzk5MjY3Mzk5MyIvPjxyZWN0IHg9IjUxMy4zMjAyODQ2OTc1MDg5IiBoZWlnaHQ9IjIxLjI4MjA1MTI4MjA1MTI4IiB3aWR0aD0iNTAuNjc5NzE1MzAyNDkxMTA0IiB5PSIxMDAuMzI5NjcwMzI5NjcwMzQiLz48cmVjdCB4PSI1MDkuODA3ODI5MTgxNDk0NjQiIGhlaWdodD0iMjEuMjgyMDUxMjgyMDUxMjgiIHdpZHRoPSI1NC4xOTIxNzA4MTg1MDUzNiIgeT0iMTMwLjczMjYwMDczMjYwMDczIi8+PHJlY3QgeD0iNDczLjE3NzkzNTk0MzA2MDUiIGhlaWdodD0iMjEuMjgyMDUxMjgyMDUxMjgiIHdpZHRoPSI5MC44MjIwNjQwNTY5Mzk1IiB5PSIxNjEuMTM1NTMxMTM1NTMxMTIiLz48cmVjdCB4PSI0NjYuNjU0ODA0MjcwNDYyNiIgaGVpZ2h0PSIyMS4yODIwNTEyODIwNTEyOCIgd2lkdGg9Ijk3LjM0NTE5NTcyOTUzNzQxIiB5PSIxOTEuNTM4NDYxNTM4NDYxNTUiLz48cmVjdCB4PSI0NDMuMDcxMTc0Mzc3MjI0MiIgaGVpZ2h0PSIyMS4yODIwNTEyODIwNTEyOCIgd2lkdGg9IjEyMC45Mjg4MjU2MjI3NzU3OCIgeT0iMjIxLjk0MTM5MTk0MTM5MTk0Ii8+PHJlY3QgeD0iNDM4LjU1NTE2MDE0MjM0ODc3IiBoZWlnaHQ9IjIxLjI4MjA1MTI4MjA1MTI4IiB3aWR0aD0iMTI1LjQ0NDgzOTg1NzY1MTIzIiB5PSIyNTIuMzQ0MzIyMzQ0MzIyMzQiLz48cmVjdCB4PSI0MjguMDE3NzkzNTk0MzA2MDYiIGhlaWdodD0iMjEuMjgyMDUxMjgyMDUxMjgiIHdpZHRoPSIxMzUuOTgyMjA2NDA1NjkzOTQiIHk9IjI4Mi43NDcyNTI3NDcyNTI3MyIvPjxyZWN0IHg9IjQyOS4wMjEzNTIzMTMxNjcyNiIgaGVpZ2h0PSIyMS4yODIwNTEyODIwNTEyOCIgd2lkdGg9IjEzNC45Nzg2NDc2ODY4MzI3NCIgeT0iMzEzLjE1MDE4MzE1MDE4MzEiLz48cmVjdCB4PSI0MTAuNzA2NDA1NjkzOTUwMTYiIGhlaWdodD0iMjEuMjgyMDUxMjgyMDUxMjgiIHdpZHRoPSIxNTMuMjkzNTk0MzA2MDQ5ODQiIHk9IjM0My41NTMxMTM1NTMxMTM1Ii8+PHJlY3QgeD0iNDA5LjQ1MTk1NzI5NTM3MzciIGhlaWdodD0iMjEuMjgyMDUxMjgyMDUxMjgiIHdpZHRoPSIxNTQuNTQ4MDQyNzA0NjI2MyIgeT0iMzczLjk1NjA0Mzk1NjA0Mzk3Ii8+PHJlY3QgeD0iMzkyLjE0MDU2OTM5NTAxNzgiIGhlaWdodD0iMjEuMjgyMDUxMjgyMDUxMjgiIHdpZHRoPSIxNzEuODU5NDMwNjA0OTgyMiIgeT0iNDA0LjM1ODk3NDM1ODk3NDM2Ii8+PHJlY3QgeD0iMzc5Ljg0Njk3NTA4ODk2Nzk1IiBoZWlnaHQ9IjIxLjI4MjA1MTI4MjA1MTI4IiB3aWR0aD0iMTg0LjE1MzAyNDkxMTAzMjA1IiB5PSI0MzQuNzYxOTA0NzYxOTA0NzYiLz48cmVjdCB4PSIzNjAuMjc3NTgwMDcxMTc0NCIgaGVpZ2h0PSIyMS4yODIwNTEyODIwNTEyOCIgd2lkdGg9IjIwMy43MjI0MTk5Mjg4MjU2MiIgeT0iNDY1LjE2NDgzNTE2NDgzNTE1Ii8+PHJlY3QgeD0iMzY2LjgwMDcxMTc0Mzc3MjI0IiBoZWlnaHQ9IjIxLjI4MjA1MTI4MjA1MTI4IiB3aWR0aD0iMTk3LjE5OTI4ODI1NjIyNzc2IiB5PSI0OTUuNTY3NzY1NTY3NzY1NTUiLz48cmVjdCB4PSIyOTkuNTYyMjc3NTgwMDcxMTciIGhlaWdodD0iMjEuMjgyMDUxMjgyMDUxMjgiIHdpZHRoPSIyNjQuNDM3NzIyNDE5OTI4ODMiIHk9IjUyNS45NzA2OTU5NzA2OTU5Ii8+PHJlY3QgeD0iMjkyLjUzNzM2NjU0ODA0MjciIGhlaWdodD0iMjEuMjgyMDUxMjgyMDUxMjgiIHdpZHRoPSIyNzEuNDYyNjMzNDUxOTU3MyIgeT0iNTU2LjM3MzYyNjM3MzYyNjQiLz48cmVjdCB4PSIyNzEuNzEzNTIzMTMxNjcyNiIgaGVpZ2h0PSIyMS4yODIwNTEyODIwNTEyOCIgd2lkdGg9IjI5Mi4yODY0NzY4NjgzMjc0IiB5PSI1ODYuNzc2NTU2Nzc2NTU2OCIvPjxyZWN0IHg9IjI1OS4xNjkwMzkxNDU5MDc0NSIgaGVpZ2h0PSIyMS4yODIwNTEyODIwNTEyOCIgd2lkdGg9IjMwNC44MzA5NjA4NTQwOTI1NSIgeT0iNjE3LjE3OTQ4NzE3OTQ4NzEiLz48cmVjdCB4PSIxODcuMTYzNzAxMDY3NjE1NjgiIGhlaWdodD0iMjEuMjgyMDUxMjgyMDUxMjgiIHdpZHRoPSIzNzYuODM2Mjk4OTMyMzg0MzUiIHk9IjY0Ny41ODI0MTc1ODI0MTc1Ii8+PHJlY3QgeD0iMTI2Ljk1MDE3NzkzNTk0MzA2IiBoZWlnaHQ9IjIxLjI4MjA1MTI4MjA1MTI4IiB3aWR0aD0iNDM3LjA0OTgyMjA2NDA1NjkiIHk9IjY3Ny45ODUzNDc5ODUzNDgiLz48cmVjdCB4PSIxMjEuMTc5NzE1MzAyNDkxMDkiIGhlaWdodD0iMjEuMjgyMDUxMjgyMDUxMjgiIHdpZHRoPSI0NDIuODIwMjg0Njk3NTA4OSIgeT0iNzA4LjM4ODI3ODM4ODI3ODQiLz48cmVjdCB4PSI3Ni41MjEzNTIzMTMxNjcyNiIgaGVpZ2h0PSIyMS4yODIwNTEyODIwNTEyOCIgd2lkdGg9IjQ4Ny40Nzg2NDc2ODY4MzI3NCIgeT0iNzM4Ljc5MTIwODc5MTIwODkiLz48cmVjdCB4PSI2NC4yMjc3NTgwMDcxMTc0MyIgaGVpZ2h0PSIyMS4yODIwNTEyODIwNTEyOCIgd2lkdGg9IjQ5OS43NzIyNDE5OTI4ODI2IiB5PSI3NjkuMTk0MTM5MTk0MTM5MSIvPjxyZWN0IHg9IjEzLjA0NjI2MzM0NTE5NTczIiBoZWlnaHQ9IjIxLjI4MjA1MTI4MjA1MTI4IiB3aWR0aD0iNTUwLjk1MzczNjY1NDgwNDMiIHk9Ijc5OS41OTcwNjk1OTcwNjk1Ii8+PHRleHQgeG1sOnNwYWNlPSJwcmVzZXJ2ZSIgZm9udC1zdHlsZT0ibm9ybWFsIiBmb250LXdlaWdodD0iYm9sZCIgZmlsbD0iIzAwMDAwMCIgZm9udC1zaXplPSIxNiIgY2xhc3M9ImJhci10ZXh0LXN0eWxlIiB0ZXh0LWFuY2hvcj0ibWlkZGxlIiBkeT0iMC4zNWVtIiB4PSI1NDYuMDYxMzg3OTAwMzU1OCIgeT0iMTkuNzYxOTA0NzYxOTA0NzY2Ij4xNDM8L3RleHQ+PHRleHQgeG1sOnNwYWNlPSJwcmVzZXJ2ZSIgZm9udC1zdHlsZT0ibm9ybWFsIiBmb250LXdlaWdodD0iYm9sZCIgZmlsbD0iIzAwMDAwMCIgZm9udC1zaXplPSIxNiIgY2xhc3M9ImJhci10ZXh0LXN0eWxlIiB0ZXh0LWFuY2hvcj0ibWlkZGxlIiBkeT0iMC4zNWVtIiB4PSI1NDQuNTU2MDQ5ODIyMDY0MSIgeT0iNTAuMTY0ODM1MTY0ODM1MTciPjE1NTwvdGV4dD48dGV4dCB4bWw6c3BhY2U9InByZXNlcnZlIiBmb250LXN0eWxlPSJub3JtYWwiIGZvbnQtd2VpZ2h0PSJib2xkIiBmaWxsPSIjMDAwMDAwIiBmb250LXNpemU9IjE2IiBjbGFzcz0iYmFyLXRleHQtc3R5bGUiIHRleHQtYW5jaG9yPSJtaWRkbGUiIGR5PSIwLjM1ZW0iIHg9IjU0MS45MjE3MDgxODUwNTM0IiB5PSI4MC41Njc3NjU1Njc3NjU1NiI+MTc2PC90ZXh0Pjx0ZXh0IHhtbDpzcGFjZT0icHJlc2VydmUiIGZvbnQtc3R5bGU9Im5vcm1hbCIgZm9udC13ZWlnaHQ9ImJvbGQiIGZpbGw9IiMwMDAwMDAiIGZvbnQtc2l6ZT0iMTYiIGNsYXNzPSJiYXItdGV4dC1zdHlsZSIgdGV4dC1hbmNob3I9Im1pZGRsZSIgZHk9IjAuMzVlbSIgeD0iNTM4LjY2MDE0MjM0ODc1NDQiIHk9IjExMC45NzA2OTU5NzA2OTU5NyI+MjAyPC90ZXh0Pjx0ZXh0IHhtbDpzcGFjZT0icHJlc2VydmUiIGZvbnQtc3R5bGU9Im5vcm1hbCIgZm9udC13ZWlnaHQ9ImJvbGQiIGZpbGw9IiMwMDAwMDAiIGZvbnQtc2l6ZT0iMTYiIGNsYXNzPSJiYXItdGV4dC1zdHlsZSIgdGV4dC1hbmNob3I9Im1pZGRsZSIgZHk9IjAuMzVlbSIgeD0iNTM2LjkwMzkxNDU5MDc0NzMiIHk9IjE0MS4zNzM2MjYzNzM2MjYzNyI+MjE2PC90ZXh0Pjx0ZXh0IHhtbDpzcGFjZT0icHJlc2VydmUiIGZvbnQtc3R5bGU9Im5vcm1hbCIgZm9udC13ZWlnaHQ9ImJvbGQiIGZpbGw9IiMwMDAwMDAiIGZvbnQtc2l6ZT0iMTYiIGNsYXNzPSJiYXItdGV4dC1zdHlsZSIgdGV4dC1hbmNob3I9Im1pZGRsZSIgZHk9IjAuMzVlbSIgeD0iNTE4LjU4ODk2Nzk3MTUzMDIiIHk9IjE3MS43NzY1NTY3NzY1NTY3NiI+MzYyPC90ZXh0Pjx0ZXh0IHhtbDpzcGFjZT0icHJlc2VydmUiIGZvbnQtc3R5bGU9Im5vcm1hbCIgZm9udC13ZWlnaHQ9ImJvbGQiIGZpbGw9IiMwMDAwMDAiIGZvbnQtc2l6ZT0iMTYiIGNsYXNzPSJiYXItdGV4dC1zdHlsZSIgdGV4dC1hbmNob3I9Im1pZGRsZSIgZHk9IjAuMzVlbSIgeD0iNTE1LjMyNzQwMjEzNTIzMTMiIHk9IjIwMi4xNzk0ODcxNzk0ODcxOCI+Mzg4PC90ZXh0Pjx0ZXh0IHhtbDpzcGFjZT0icHJlc2VydmUiIGZvbnQtc3R5bGU9Im5vcm1hbCIgZm9udC13ZWlnaHQ9ImJvbGQiIGZpbGw9IiMwMDAwMDAiIGZvbnQtc2l6ZT0iMTYiIGNsYXNzPSJiYXItdGV4dC1zdHlsZSIgdGV4dC1hbmNob3I9Im1pZGRsZSIgZHk9IjAuMzVlbSIgeD0iNTAzLjUzNTU4NzE4ODYxMjEiIHk9IjIzMi41ODI0MTc1ODI0MTc1OCI+NDgyPC90ZXh0Pjx0ZXh0IHhtbDpzcGFjZT0icHJlc2VydmUiIGZvbnQtc3R5bGU9Im5vcm1hbCIgZm9udC13ZWlnaHQ9ImJvbGQiIGZpbGw9IiMwMDAwMDAiIGZvbnQtc2l6ZT0iMTYiIGNsYXNzPSJiYXItdGV4dC1zdHlsZSIgdGV4dC1hbmNob3I9Im1pZGRsZSIgZHk9IjAuMzVlbSIgeD0iNTAxLjI3NzU4MDA3MTE3NDQiIHk9IjI2Mi45ODUzNDc5ODUzNDc5NyI+NTAwPC90ZXh0Pjx0ZXh0IHhtbDpzcGFjZT0icHJlc2VydmUiIGZvbnQtc3R5bGU9Im5vcm1hbCIgZm9udC13ZWlnaHQ9ImJvbGQiIGZpbGw9IiMwMDAwMDAiIGZvbnQtc2l6ZT0iMTYiIGNsYXNzPSJiYXItdGV4dC1zdHlsZSIgdGV4dC1hbmNob3I9Im1pZGRsZSIgZHk9IjAuMzVlbSIgeD0iNDk2LjAwODg5Njc5NzE1MzA2IiB5PSIyOTMuMzg4Mjc4Mzg4Mjc4MzciPjU0MjwvdGV4dD48dGV4dCB4bWw6c3BhY2U9InByZXNlcnZlIiBmb250LXN0eWxlPSJub3JtYWwiIGZvbnQtd2VpZ2h0PSJib2xkIiBmaWxsPSIjMDAwMDAwIiBmb250LXNpemU9IjE2IiBjbGFzcz0iYmFyLXRleHQtc3R5bGUiIHRleHQtYW5jaG9yPSJtaWRkbGUiIGR5PSIwLjM1ZW0iIHg9IjQ5Ni41MTA2NzYxNTY1ODM2IiB5PSIzMjMuNzkxMjA4NzkxMjA4NzYiPjUzODwvdGV4dD48dGV4dCB4bWw6c3BhY2U9InByZXNlcnZlIiBmb250LXN0eWxlPSJub3JtYWwiIGZvbnQtd2VpZ2h0PSJib2xkIiBmaWxsPSIjMDAwMDAwIiBmb250LXNpemU9IjE2IiBjbGFzcz0iYmFyLXRleHQtc3R5bGUiIHRleHQtYW5jaG9yPSJtaWRkbGUiIGR5PSIwLjM1ZW0iIHg9IjQ4Ny4zNTMyMDI4NDY5NzUxIiB5PSIzNTQuMTk0MTM5MTk0MTM5MTUiPjYxMTwvdGV4dD48dGV4dCB4bWw6c3BhY2U9InByZXNlcnZlIiBmb250LXN0eWxlPSJub3JtYWwiIGZvbnQtd2VpZ2h0PSJib2xkIiBmaWxsPSIjMDAwMDAwIiBmb250LXNpemU9IjE2IiBjbGFzcz0iYmFyLXRleHQtc3R5bGUiIHRleHQtYW5jaG9yPSJtaWRkbGUiIGR5PSIwLjM1ZW0iIHg9IjQ4Ni43MjU5Nzg2NDc2ODY4IiB5PSIzODQuNTk3MDY5NTk3MDY5NiI+NjE2PC90ZXh0Pjx0ZXh0IHhtbDpzcGFjZT0icHJlc2VydmUiIGZvbnQtc3R5bGU9Im5vcm1hbCIgZm9udC13ZWlnaHQ9ImJvbGQiIGZpbGw9IiMwMDAwMDAiIGZvbnQtc2l6ZT0iMTYiIGNsYXNzPSJiYXItdGV4dC1zdHlsZSIgdGV4dC1hbmNob3I9Im1pZGRsZSIgZHk9IjAuMzVlbSIgeD0iNDc4LjA3MDI4NDY5NzUwODkiIHk9IjQxNSI+Njg1PC90ZXh0Pjx0ZXh0IHhtbDpzcGFjZT0icHJlc2VydmUiIGZvbnQtc3R5bGU9Im5vcm1hbCIgZm9udC13ZWlnaHQ9ImJvbGQiIGZpbGw9IiMwMDAwMDAiIGZvbnQtc2l6ZT0iMTYiIGNsYXNzPSJiYXItdGV4dC1zdHlsZSIgdGV4dC1hbmNob3I9Im1pZGRsZSIgZHk9IjAuMzVlbSIgeD0iNDcxLjkyMzQ4NzU0NDQ4NCIgeT0iNDQ1LjQwMjkzMDQwMjkzMDQiPjczNDwvdGV4dD48dGV4dCB4bWw6c3BhY2U9InByZXNlcnZlIiBmb250LXN0eWxlPSJub3JtYWwiIGZvbnQtd2VpZ2h0PSJib2xkIiBmaWxsPSIjMDAwMDAwIiBmb250LXNpemU9IjE2IiBjbGFzcz0iYmFyLXRleHQtc3R5bGUiIHRleHQtYW5jaG9yPSJtaWRkbGUiIGR5PSIwLjM1ZW0iIHg9IjQ2Mi4xMzg3OTAwMzU1ODcyIiB5PSI0NzUuODA1ODYwODA1ODYwOCI+ODEyPC90ZXh0Pjx0ZXh0IHhtbDpzcGFjZT0icHJlc2VydmUiIGZvbnQtc3R5bGU9Im5vcm1hbCIgZm9udC13ZWlnaHQ9ImJvbGQiIGZpbGw9IiMwMDAwMDAiIGZvbnQtc2l6ZT0iMTYiIGNsYXNzPSJiYXItdGV4dC1zdHlsZSIgdGV4dC1hbmNob3I9Im1pZGRsZSIgZHk9IjAuMzVlbSIgeD0iNDY1LjQwMDM1NTg3MTg4NjEiIHk9IjUwNi4yMDg3OTEyMDg3OTEyIj43ODY8L3RleHQ+PHRleHQgeG1sOnNwYWNlPSJwcmVzZXJ2ZSIgZm9udC1zdHlsZT0ibm9ybWFsIiBmb250LXdlaWdodD0iYm9sZCIgZmlsbD0iIzAwMDAwMCIgZm9udC1zaXplPSIxNiIgY2xhc3M9ImJhci10ZXh0LXN0eWxlIiB0ZXh0LWFuY2hvcj0ibWlkZGxlIiBkeT0iMC4zNWVtIiB4PSI0MzEuNzgxMTM4NzkwMDM1NiIgeT0iNTM2LjYxMTcyMTYxMTcyMTYiPjEwNTQ8L3RleHQ+PHRleHQgeG1sOnNwYWNlPSJwcmVzZXJ2ZSIgZm9udC1zdHlsZT0ibm9ybWFsIiBmb250LXdlaWdodD0iYm9sZCIgZmlsbD0iIzAwMDAwMCIgZm9udC1zaXplPSIxNiIgY2xhc3M9ImJhci10ZXh0LXN0eWxlIiB0ZXh0LWFuY2hvcj0ibWlkZGxlIiBkeT0iMC4zNWVtIiB4PSI0MjguMjY4NjgzMjc0MDIxMyIgeT0iNTY3LjAxNDY1MjAxNDY1MiI+MTA4MjwvdGV4dD48dGV4dCB4bWw6c3BhY2U9InByZXNlcnZlIiBmb250LXN0eWxlPSJub3JtYWwiIGZvbnQtd2VpZ2h0PSJib2xkIiBmaWxsPSIjMDAwMDAwIiBmb250LXNpemU9IjE2IiBjbGFzcz0iYmFyLXRleHQtc3R5bGUiIHRleHQtYW5jaG9yPSJtaWRkbGUiIGR5PSIwLjM1ZW0iIHg9IjQxNy44NTY3NjE1NjU4MzYzNCIgeT0iNTk3LjQxNzU4MjQxNzU4MjUiPjExNjU8L3RleHQ+PHRleHQgeG1sOnNwYWNlPSJwcmVzZXJ2ZSIgZm9udC1zdHlsZT0ibm9ybWFsIiBmb250LXdlaWdodD0iYm9sZCIgZmlsbD0iIzAwMDAwMCIgZm9udC1zaXplPSIxNiIgY2xhc3M9ImJhci10ZXh0LXN0eWxlIiB0ZXh0LWFuY2hvcj0ibWlkZGxlIiBkeT0iMC4zNWVtIiB4PSI0MTEuNTg0NTE5NTcyOTUzNyIgeT0iNjI3LjgyMDUxMjgyMDUxMjciPjEyMTU8L3RleHQ+PHRleHQgeG1sOnNwYWNlPSJwcmVzZXJ2ZSIgZm9udC1zdHlsZT0ibm9ybWFsIiBmb250LXdlaWdodD0iYm9sZCIgZmlsbD0iIzAwMDAwMCIgZm9udC1zaXplPSIxNiIgY2xhc3M9ImJhci10ZXh0LXN0eWxlIiB0ZXh0LWFuY2hvcj0ibWlkZGxlIiBkeT0iMC4zNWVtIiB4PSIzNzUuNTgxODUwNTMzODA3OCIgeT0iNjU4LjIyMzQ0MzIyMzQ0MzIiPjE1MDI8L3RleHQ+PHRleHQgeG1sOnNwYWNlPSJwcmVzZXJ2ZSIgZm9udC1zdHlsZT0ibm9ybWFsIiBmb250LXdlaWdodD0iYm9sZCIgZmlsbD0iIzAwMDAwMCIgZm9udC1zaXplPSIxNiIgY2xhc3M9ImJhci10ZXh0LXN0eWxlIiB0ZXh0LWFuY2hvcj0ibWlkZGxlIiBkeT0iMC4zNWVtIiB4PSIzNDUuNDc1MDg4OTY3OTcxNTQiIHk9IjY4OC42MjYzNzM2MjYzNzM2Ij4xNzQyPC90ZXh0Pjx0ZXh0IHhtbDpzcGFjZT0icHJlc2VydmUiIGZvbnQtc3R5bGU9Im5vcm1hbCIgZm9udC13ZWlnaHQ9ImJvbGQiIGZpbGw9IiMwMDAwMDAiIGZvbnQtc2l6ZT0iMTYiIGNsYXNzPSJiYXItdGV4dC1zdHlsZSIgdGV4dC1hbmNob3I9Im1pZGRsZSIgZHk9IjAuMzVlbSIgeD0iMzQyLjU4OTg1NzY1MTI0NTU1IiB5PSI3MTkuMDI5MzA0MDI5MzA0MSI+MTc2NTwvdGV4dD48dGV4dCB4bWw6c3BhY2U9InByZXNlcnZlIiBmb250LXN0eWxlPSJub3JtYWwiIGZvbnQtd2VpZ2h0PSJib2xkIiBmaWxsPSIjMDAwMDAwIiBmb250LXNpemU9IjE2IiBjbGFzcz0iYmFyLXRleHQtc3R5bGUiIHRleHQtYW5jaG9yPSJtaWRkbGUiIGR5PSIwLjM1ZW0iIHg9IjMyMC4yNjA2NzYxNTY1ODM2IiB5PSI3NDkuNDMyMjM0NDMyMjM0NSI+MTk0MzwvdGV4dD48dGV4dCB4bWw6c3BhY2U9InByZXNlcnZlIiBmb250LXN0eWxlPSJub3JtYWwiIGZvbnQtd2VpZ2h0PSJib2xkIiBmaWxsPSIjMDAwMDAwIiBmb250LXNpemU9IjE2IiBjbGFzcz0iYmFyLXRleHQtc3R5bGUiIHRleHQtYW5jaG9yPSJtaWRkbGUiIGR5PSIwLjM1ZW0iIHg9IjMxNC4xMTM4NzkwMDM1NTg3NCIgeT0iNzc5LjgzNTE2NDgzNTE2NDciPjE5OTI8L3RleHQ+PHRleHQgeG1sOnNwYWNlPSJwcmVzZXJ2ZSIgZm9udC1zdHlsZT0ibm9ybWFsIiBmb250LXdlaWdodD0iYm9sZCIgZmlsbD0iIzAwMDAwMCIgZm9udC1zaXplPSIxNiIgY2xhc3M9ImJhci10ZXh0LXN0eWxlIiB0ZXh0LWFuY2hvcj0ibWlkZGxlIiBkeT0iMC4zNWVtIiB4PSIyODguNTIzMTMxNjcyNTk3ODYiIHk9IjgxMC4yMzgwOTUyMzgwOTUyIj4yMTk2PC90ZXh0PjwvZz48L2c+PGcgaWQ9Im1pZGRsZUdyb3VwLWdyb3VwIi8+PGcgdHJhbnNmb3JtPSJ0cmFuc2xhdGUoMCw4MzApIiBpZD0ieEF4aXMiIHRleHQtYW5jaG9yPSJtaWRkbGUiIGZvbnQtc2l6ZT0iMTAiIGZpbGw9Im5vbmUiPjxwYXRoIHN0cm9rZS1vcGFjaXR5PSIxIiBzdHJva2Utd2lkdGg9IjEiIGQ9Ik0wLjUsMC41SDU2NC41IiBzdHJva2U9IiMwMDAwMDAiIGNsYXNzPSJkb21haW4iLz48ZyB0cmFuc2Zvcm09InRyYW5zbGF0ZSgwLjUsMCkiIG9wYWNpdHk9IjEiIGNsYXNzPSJ0aWNrIj48bGluZSBzdHJva2Utb3BhY2l0eT0iMSIgc3Ryb2tlLXdpZHRoPSIxIiBjbGFzcz0idGljay1saW5lIiB5Mj0iNiIgc3Ryb2tlPSIjMDAwMDAwIi8+PHRleHQgeG1sOnNwYWNlPSJwcmVzZXJ2ZSIgZHg9Ii0xMCIgZm9udC1zdHlsZT0ibm9ybWFsIiB0ZXh0LWFuY2hvcj0iZW5kIiBmb250LXdlaWdodD0iYm9sZCIgZm9udC1zaXplPSIxOCIgdHJhbnNmb3JtPSJyb3RhdGUoLTQ1KSIgY2xhc3M9InhBeGlzLXRpY2stdGV4dCIgZHk9IjQiIHk9IjkiIGZpbGw9IiMwMDAwMDAiPjA8L3RleHQ+PC9nPjxnIHRyYW5zZm9ybT0idHJhbnNsYXRlKDUwLjY3NzkzNTk0MzA2MDUwNCwwKSIgb3BhY2l0eT0iMSIgY2xhc3M9InRpY2siPjxsaW5lIHN0cm9rZS1vcGFjaXR5PSIxIiBzdHJva2Utd2lkdGg9IjEiIGNsYXNzPSJ0aWNrLWxpbmUiIHkyPSI2IiBzdHJva2U9IiMwMDAwMDAiLz48dGV4dCB4bWw6c3BhY2U9InByZXNlcnZlIiBkeD0iLTEwIiBmb250LXN0eWxlPSJub3JtYWwiIHRleHQtYW5jaG9yPSJlbmQiIGZvbnQtd2VpZ2h0PSJib2xkIiBmb250LXNpemU9IjE4IiB0cmFuc2Zvcm09InJvdGF0ZSgtNDUpIiBjbGFzcz0ieEF4aXMtdGljay10ZXh0IiBkeT0iNCIgeT0iOSIgZmlsbD0iIzAwMDAwMCI+MjAwPC90ZXh0PjwvZz48ZyB0cmFuc2Zvcm09InRyYW5zbGF0ZSgxMDAuODU1ODcxODg2MTIxMDEsMCkiIG9wYWNpdHk9IjEiIGNsYXNzPSJ0aWNrIj48bGluZSBzdHJva2Utb3BhY2l0eT0iMSIgc3Ryb2tlLXdpZHRoPSIxIiBjbGFzcz0idGljay1saW5lIiB5Mj0iNiIgc3Ryb2tlPSIjMDAwMDAwIi8+PHRleHQgeG1sOnNwYWNlPSJwcmVzZXJ2ZSIgZHg9Ii0xMCIgZm9udC1zdHlsZT0ibm9ybWFsIiB0ZXh0LWFuY2hvcj0iZW5kIiBmb250LXdlaWdodD0iYm9sZCIgZm9udC1zaXplPSIxOCIgdHJhbnNmb3JtPSJyb3RhdGUoLTQ1KSIgY2xhc3M9InhBeGlzLXRpY2stdGV4dCIgZHk9IjQiIHk9IjkiIGZpbGw9IiMwMDAwMDAiPjQwMDwvdGV4dD48L2c+PGcgdHJhbnNmb3JtPSJ0cmFuc2xhdGUoMTUxLjAzMzgwNzgyOTE4MTQ4LDApIiBvcGFjaXR5PSIxIiBjbGFzcz0idGljayI+PGxpbmUgc3Ryb2tlLW9wYWNpdHk9IjEiIHN0cm9rZS13aWR0aD0iMSIgY2xhc3M9InRpY2stbGluZSIgeTI9IjYiIHN0cm9rZT0iIzAwMDAwMCIvPjx0ZXh0IHhtbDpzcGFjZT0icHJlc2VydmUiIGR4PSItMTAiIGZvbnQtc3R5bGU9Im5vcm1hbCIgdGV4dC1hbmNob3I9ImVuZCIgZm9udC13ZWlnaHQ9ImJvbGQiIGZvbnQtc2l6ZT0iMTgiIHRyYW5zZm9ybT0icm90YXRlKC00NSkiIGNsYXNzPSJ4QXhpcy10aWNrLXRleHQiIGR5PSI0IiB5PSI5IiBmaWxsPSIjMDAwMDAwIj42MDA8L3RleHQ+PC9nPjxnIHRyYW5zZm9ybT0idHJhbnNsYXRlKDIwMS4yMTE3NDM3NzIyNDIwMiwwKSIgb3BhY2l0eT0iMSIgY2xhc3M9InRpY2siPjxsaW5lIHN0cm9rZS1vcGFjaXR5PSIxIiBzdHJva2Utd2lkdGg9IjEiIGNsYXNzPSJ0aWNrLWxpbmUiIHkyPSI2IiBzdHJva2U9IiMwMDAwMDAiLz48dGV4dCB4bWw6c3BhY2U9InByZXNlcnZlIiBkeD0iLTEwIiBmb250LXN0eWxlPSJub3JtYWwiIHRleHQtYW5jaG9yPSJlbmQiIGZvbnQtd2VpZ2h0PSJib2xkIiBmb250LXNpemU9IjE4IiB0cmFuc2Zvcm09InJvdGF0ZSgtNDUpIiBjbGFzcz0ieEF4aXMtdGljay10ZXh0IiBkeT0iNCIgeT0iOSIgZmlsbD0iIzAwMDAwMCI+ODAwPC90ZXh0PjwvZz48ZyB0cmFuc2Zvcm09InRyYW5zbGF0ZSgyNTEuMzg5Njc5NzE1MzAyNSwwKSIgb3BhY2l0eT0iMSIgY2xhc3M9InRpY2siPjxsaW5lIHN0cm9rZS1vcGFjaXR5PSIxIiBzdHJva2Utd2lkdGg9IjEiIGNsYXNzPSJ0aWNrLWxpbmUiIHkyPSI2IiBzdHJva2U9IiMwMDAwMDAiLz48dGV4dCB4bWw6c3BhY2U9InByZXNlcnZlIiBkeD0iLTEwIiBmb250LXN0eWxlPSJub3JtYWwiIHRleHQtYW5jaG9yPSJlbmQiIGZvbnQtd2VpZ2h0PSJib2xkIiBmb250LXNpemU9IjE4IiB0cmFuc2Zvcm09InJvdGF0ZSgtNDUpIiBjbGFzcz0ieEF4aXMtdGljay10ZXh0IiBkeT0iNCIgeT0iOSIgZmlsbD0iIzAwMDAwMCI+MSwwMDA8L3RleHQ+PC9nPjxnIHRyYW5zZm9ybT0idHJhbnNsYXRlKDMwMS41Njc2MTU2NTgzNjI5NywwKSIgb3BhY2l0eT0iMSIgY2xhc3M9InRpY2siPjxsaW5lIHN0cm9rZS1vcGFjaXR5PSIxIiBzdHJva2Utd2lkdGg9IjEiIGNsYXNzPSJ0aWNrLWxpbmUiIHkyPSI2IiBzdHJva2U9IiMwMDAwMDAiLz48dGV4dCB4bWw6c3BhY2U9InByZXNlcnZlIiBkeD0iLTEwIiBmb250LXN0eWxlPSJub3JtYWwiIHRleHQtYW5jaG9yPSJlbmQiIGZvbnQtd2VpZ2h0PSJib2xkIiBmb250LXNpemU9IjE4IiB0cmFuc2Zvcm09InJvdGF0ZSgtNDUpIiBjbGFzcz0ieEF4aXMtdGljay10ZXh0IiBkeT0iNCIgeT0iOSIgZmlsbD0iIzAwMDAwMCI+MSwyMDA8L3RleHQ+PC9nPjxnIHRyYW5zZm9ybT0idHJhbnNsYXRlKDM1MS43NDU1NTE2MDE0MjM1LDApIiBvcGFjaXR5PSIxIiBjbGFzcz0idGljayI+PGxpbmUgc3Ryb2tlLW9wYWNpdHk9IjEiIHN0cm9rZS13aWR0aD0iMSIgY2xhc3M9InRpY2stbGluZSIgeTI9IjYiIHN0cm9rZT0iIzAwMDAwMCIvPjx0ZXh0IHhtbDpzcGFjZT0icHJlc2VydmUiIGR4PSItMTAiIGZvbnQtc3R5bGU9Im5vcm1hbCIgdGV4dC1hbmNob3I9ImVuZCIgZm9udC13ZWlnaHQ9ImJvbGQiIGZvbnQtc2l6ZT0iMTgiIHRyYW5zZm9ybT0icm90YXRlKC00NSkiIGNsYXNzPSJ4QXhpcy10aWNrLXRleHQiIGR5PSI0IiB5PSI5IiBmaWxsPSIjMDAwMDAwIj4xLDQwMDwvdGV4dD48L2c+PGcgdHJhbnNmb3JtPSJ0cmFuc2xhdGUoNDAxLjkyMzQ4NzU0NDQ4NDAzLDApIiBvcGFjaXR5PSIxIiBjbGFzcz0idGljayI+PGxpbmUgc3Ryb2tlLW9wYWNpdHk9IjEiIHN0cm9rZS13aWR0aD0iMSIgY2xhc3M9InRpY2stbGluZSIgeTI9IjYiIHN0cm9rZT0iIzAwMDAwMCIvPjx0ZXh0IHhtbDpzcGFjZT0icHJlc2VydmUiIGR4PSItMTAiIGZvbnQtc3R5bGU9Im5vcm1hbCIgdGV4dC1hbmNob3I9ImVuZCIgZm9udC13ZWlnaHQ9ImJvbGQiIGZvbnQtc2l6ZT0iMTgiIHRyYW5zZm9ybT0icm90YXRlKC00NSkiIGNsYXNzPSJ4QXhpcy10aWNrLXRleHQiIGR5PSI0IiB5PSI5IiBmaWxsPSIjMDAwMDAwIj4xLDYwMDwvdGV4dD48L2c+PGcgdHJhbnNmb3JtPSJ0cmFuc2xhdGUoNDUyLjEwMTQyMzQ4NzU0NDUsMCkiIG9wYWNpdHk9IjEiIGNsYXNzPSJ0aWNrIj48bGluZSBzdHJva2Utb3BhY2l0eT0iMSIgc3Ryb2tlLXdpZHRoPSIxIiBjbGFzcz0idGljay1saW5lIiB5Mj0iNiIgc3Ryb2tlPSIjMDAwMDAwIi8+PHRleHQgeG1sOnNwYWNlPSJwcmVzZXJ2ZSIgZHg9Ii0xMCIgZm9udC1zdHlsZT0ibm9ybWFsIiB0ZXh0LWFuY2hvcj0iZW5kIiBmb250LXdlaWdodD0iYm9sZCIgZm9udC1zaXplPSIxOCIgdHJhbnNmb3JtPSJyb3RhdGUoLTQ1KSIgY2xhc3M9InhBeGlzLXRpY2stdGV4dCIgZHk9IjQiIHk9IjkiIGZpbGw9IiMwMDAwMDAiPjEsODAwPC90ZXh0PjwvZz48ZyB0cmFuc2Zvcm09InRyYW5zbGF0ZSg1MDIuMjc5MzU5NDMwNjA1LDApIiBvcGFjaXR5PSIxIiBjbGFzcz0idGljayI+PGxpbmUgc3Ryb2tlLW9wYWNpdHk9IjEiIHN0cm9rZS13aWR0aD0iMSIgY2xhc3M9InRpY2stbGluZSIgeTI9IjYiIHN0cm9rZT0iIzAwMDAwMCIvPjx0ZXh0IHhtbDpzcGFjZT0icHJlc2VydmUiIGR4PSItMTAiIGZvbnQtc3R5bGU9Im5vcm1hbCIgdGV4dC1hbmNob3I9ImVuZCIgZm9udC13ZWlnaHQ9ImJvbGQiIGZvbnQtc2l6ZT0iMTgiIHRyYW5zZm9ybT0icm90YXRlKC00NSkiIGNsYXNzPSJ4QXhpcy10aWNrLXRleHQiIGR5PSI0IiB5PSI5IiBmaWxsPSIjMDAwMDAwIj4yLDAwMDwvdGV4dD48L2c+PGcgdHJhbnNmb3JtPSJ0cmFuc2xhdGUoNTUyLjQ1NzI5NTM3MzY2NTUsMCkiIG9wYWNpdHk9IjEiIGNsYXNzPSJ0aWNrIj48bGluZSBzdHJva2Utb3BhY2l0eT0iMSIgc3Ryb2tlLXdpZHRoPSIxIiBjbGFzcz0idGljay1saW5lIiB5Mj0iNiIgc3Ryb2tlPSIjMDAwMDAwIi8+PHRleHQgeG1sOnNwYWNlPSJwcmVzZXJ2ZSIgZHg9Ii0xMCIgZm9udC1zdHlsZT0ibm9ybWFsIiB0ZXh0LWFuY2hvcj0iZW5kIiBmb250LXdlaWdodD0iYm9sZCIgZm9udC1zaXplPSIxOCIgdHJhbnNmb3JtPSJyb3RhdGUoLTQ1KSIgY2xhc3M9InhBeGlzLXRpY2stdGV4dCIgZHk9IjQiIHk9IjkiIGZpbGw9IiMwMDAwMDAiPjIsMjAwPC90ZXh0PjwvZz48dGV4dCB4bWw6c3BhY2U9InByZXNlcnZlIiBmb250LXN0eWxlPSJub3JtYWwiIGZvbnQtd2VpZ2h0PSJib2xkIiBmaWxsPSIjMDAwMDAwIiBmb250LXNpemU9IjIwIiB5PSI3MCIgeD0iMjgyIiB0ZXh0LWFuY2hvcj0ibWlkZGxlIiBjbGFzcz0ieEF4aXMtbGFiZWwiPjx0c3Bhbj5TYW1wbGVzPC90c3Bhbj48L3RleHQ+PC9nPjxnIGlkPSJ5QXhpcyIgdGV4dC1hbmNob3I9ImVuZCIgZm9udC1zaXplPSIxMCIgZmlsbD0ibm9uZSI+PHBhdGggc3Ryb2tlLW9wYWNpdHk9IjEiIHN0cm9rZS13aWR0aD0iMSIgZD0iTTAuNSwwLjVWODMwLjUiIHN0cm9rZT0iIzAwMDAwMCIgY2xhc3M9ImRvbWFpbiIvPjxnIHRyYW5zZm9ybT0idHJhbnNsYXRlKDAsMTkuNzYxOTA0NzYxOTA0NzY2KSIgb3BhY2l0eT0iMSIgY2xhc3M9InRpY2siPjxsaW5lIHN0cm9rZS1vcGFjaXR5PSIxIiBzdHJva2Utd2lkdGg9IjEiIGNsYXNzPSJ0aWNrLWxpbmUiIHgyPSItNiIgc3Ryb2tlPSIjMDAwMDAwIi8+PHRleHQgeG1sOnNwYWNlPSJwcmVzZXJ2ZSIgZHg9IjAiIGZvbnQtc3R5bGU9Im5vcm1hbCIgdGV4dC1hbmNob3I9ImVuZCIgZm9udC13ZWlnaHQ9ImJvbGQiIGZvbnQtc2l6ZT0iMTgiIHRyYW5zZm9ybT0icm90YXRlKDApIiBjbGFzcz0ieUF4aXMtdGljay10ZXh0IiBkeT0iMyIgeD0iLTkiIGZpbGw9IiMwMDAwMDAiPjE8L3RleHQ+PC9nPjxnIHRyYW5zZm9ybT0idHJhbnNsYXRlKDAsNTAuMTY0ODM1MTY0ODM1MTcpIiBvcGFjaXR5PSIxIiBjbGFzcz0idGljayI+PGxpbmUgc3Ryb2tlLW9wYWNpdHk9IjEiIHN0cm9rZS13aWR0aD0iMSIgY2xhc3M9InRpY2stbGluZSIgeDI9Ii02IiBzdHJva2U9IiMwMDAwMDAiLz48dGV4dCB4bWw6c3BhY2U9InByZXNlcnZlIiBkeD0iMCIgZm9udC1zdHlsZT0ibm9ybWFsIiB0ZXh0LWFuY2hvcj0iZW5kIiBmb250LXdlaWdodD0iYm9sZCIgZm9udC1zaXplPSIxOCIgdHJhbnNmb3JtPSJyb3RhdGUoMCkiIGNsYXNzPSJ5QXhpcy10aWNrLXRleHQiIGR5PSIzIiB4PSItOSIgZmlsbD0iIzAwMDAwMCI+MjwvdGV4dD48L2c+PGcgdHJhbnNmb3JtPSJ0cmFuc2xhdGUoMCw4MC41Njc3NjU1Njc3NjU1NikiIG9wYWNpdHk9IjEiIGNsYXNzPSJ0aWNrIj48bGluZSBzdHJva2Utb3BhY2l0eT0iMSIgc3Ryb2tlLXdpZHRoPSIxIiBjbGFzcz0idGljay1saW5lIiB4Mj0iLTYiIHN0cm9rZT0iIzAwMDAwMCIvPjx0ZXh0IHhtbDpzcGFjZT0icHJlc2VydmUiIGR4PSIwIiBmb250LXN0eWxlPSJub3JtYWwiIHRleHQtYW5jaG9yPSJlbmQiIGZvbnQtd2VpZ2h0PSJib2xkIiBmb250LXNpemU9IjE4IiB0cmFuc2Zvcm09InJvdGF0ZSgwKSIgY2xhc3M9InlBeGlzLXRpY2stdGV4dCIgZHk9IjMiIHg9Ii05IiBmaWxsPSIjMDAwMDAwIj4zPC90ZXh0PjwvZz48ZyB0cmFuc2Zvcm09InRyYW5zbGF0ZSgwLDExMC45NzA2OTU5NzA2OTU5NykiIG9wYWNpdHk9IjEiIGNsYXNzPSJ0aWNrIj48bGluZSBzdHJva2Utb3BhY2l0eT0iMSIgc3Ryb2tlLXdpZHRoPSIxIiBjbGFzcz0idGljay1saW5lIiB4Mj0iLTYiIHN0cm9rZT0iIzAwMDAwMCIvPjx0ZXh0IHhtbDpzcGFjZT0icHJlc2VydmUiIGR4PSIwIiBmb250LXN0eWxlPSJub3JtYWwiIHRleHQtYW5jaG9yPSJlbmQiIGZvbnQtd2VpZ2h0PSJib2xkIiBmb250LXNpemU9IjE4IiB0cmFuc2Zvcm09InJvdGF0ZSgwKSIgY2xhc3M9InlBeGlzLXRpY2stdGV4dCIgZHk9IjMiIHg9Ii05IiBmaWxsPSIjMDAwMDAwIj40PC90ZXh0PjwvZz48ZyB0cmFuc2Zvcm09InRyYW5zbGF0ZSgwLDE0MS4zNzM2MjYzNzM2MjYzNykiIG9wYWNpdHk9IjEiIGNsYXNzPSJ0aWNrIj48bGluZSBzdHJva2Utb3BhY2l0eT0iMSIgc3Ryb2tlLXdpZHRoPSIxIiBjbGFzcz0idGljay1saW5lIiB4Mj0iLTYiIHN0cm9rZT0iIzAwMDAwMCIvPjx0ZXh0IHhtbDpzcGFjZT0icHJlc2VydmUiIGR4PSIwIiBmb250LXN0eWxlPSJub3JtYWwiIHRleHQtYW5jaG9yPSJlbmQiIGZvbnQtd2VpZ2h0PSJib2xkIiBmb250LXNpemU9IjE4IiB0cmFuc2Zvcm09InJvdGF0ZSgwKSIgY2xhc3M9InlBeGlzLXRpY2stdGV4dCIgZHk9IjMiIHg9Ii05IiBmaWxsPSIjMDAwMDAwIj41PC90ZXh0PjwvZz48ZyB0cmFuc2Zvcm09InRyYW5zbGF0ZSgwLDE3MS43NzY1NTY3NzY1NTY3NikiIG9wYWNpdHk9IjEiIGNsYXNzPSJ0aWNrIj48bGluZSBzdHJva2Utb3BhY2l0eT0iMSIgc3Ryb2tlLXdpZHRoPSIxIiBjbGFzcz0idGljay1saW5lIiB4Mj0iLTYiIHN0cm9rZT0iIzAwMDAwMCIvPjx0ZXh0IHhtbDpzcGFjZT0icHJlc2VydmUiIGR4PSIwIiBmb250LXN0eWxlPSJub3JtYWwiIHRleHQtYW5jaG9yPSJlbmQiIGZvbnQtd2VpZ2h0PSJib2xkIiBmb250LXNpemU9IjE4IiB0cmFuc2Zvcm09InJvdGF0ZSgwKSIgY2xhc3M9InlBeGlzLXRpY2stdGV4dCIgZHk9IjMiIHg9Ii05IiBmaWxsPSIjMDAwMDAwIj42PC90ZXh0PjwvZz48ZyB0cmFuc2Zvcm09InRyYW5zbGF0ZSgwLDIwMi4xNzk0ODcxNzk0ODcxOCkiIG9wYWNpdHk9IjEiIGNsYXNzPSJ0aWNrIj48bGluZSBzdHJva2Utb3BhY2l0eT0iMSIgc3Ryb2tlLXdpZHRoPSIxIiBjbGFzcz0idGljay1saW5lIiB4Mj0iLTYiIHN0cm9rZT0iIzAwMDAwMCIvPjx0ZXh0IHhtbDpzcGFjZT0icHJlc2VydmUiIGR4PSIwIiBmb250LXN0eWxlPSJub3JtYWwiIHRleHQtYW5jaG9yPSJlbmQiIGZvbnQtd2VpZ2h0PSJib2xkIiBmb250LXNpemU9IjE4IiB0cmFuc2Zvcm09InJvdGF0ZSgwKSIgY2xhc3M9InlBeGlzLXRpY2stdGV4dCIgZHk9IjMiIHg9Ii05IiBmaWxsPSIjMDAwMDAwIj43PC90ZXh0PjwvZz48ZyB0cmFuc2Zvcm09InRyYW5zbGF0ZSgwLDIzMi41ODI0MTc1ODI0MTc1OCkiIG9wYWNpdHk9IjEiIGNsYXNzPSJ0aWNrIj48bGluZSBzdHJva2Utb3BhY2l0eT0iMSIgc3Ryb2tlLXdpZHRoPSIxIiBjbGFzcz0idGljay1saW5lIiB4Mj0iLTYiIHN0cm9rZT0iIzAwMDAwMCIvPjx0ZXh0IHhtbDpzcGFjZT0icHJlc2VydmUiIGR4PSIwIiBmb250LXN0eWxlPSJub3JtYWwiIHRleHQtYW5jaG9yPSJlbmQiIGZvbnQtd2VpZ2h0PSJib2xkIiBmb250LXNpemU9IjE4IiB0cmFuc2Zvcm09InJvdGF0ZSgwKSIgY2xhc3M9InlBeGlzLXRpY2stdGV4dCIgZHk9IjMiIHg9Ii05IiBmaWxsPSIjMDAwMDAwIj44PC90ZXh0PjwvZz48ZyB0cmFuc2Zvcm09InRyYW5zbGF0ZSgwLDI2Mi45ODUzNDc5ODUzNDc5NykiIG9wYWNpdHk9IjEiIGNsYXNzPSJ0aWNrIj48bGluZSBzdHJva2Utb3BhY2l0eT0iMSIgc3Ryb2tlLXdpZHRoPSIxIiBjbGFzcz0idGljay1saW5lIiB4Mj0iLTYiIHN0cm9rZT0iIzAwMDAwMCIvPjx0ZXh0IHhtbDpzcGFjZT0icHJlc2VydmUiIGR4PSIwIiBmb250LXN0eWxlPSJub3JtYWwiIHRleHQtYW5jaG9yPSJlbmQiIGZvbnQtd2VpZ2h0PSJib2xkIiBmb250LXNpemU9IjE4IiB0cmFuc2Zvcm09InJvdGF0ZSgwKSIgY2xhc3M9InlBeGlzLXRpY2stdGV4dCIgZHk9IjMiIHg9Ii05IiBmaWxsPSIjMDAwMDAwIj45PC90ZXh0PjwvZz48ZyB0cmFuc2Zvcm09InRyYW5zbGF0ZSgwLDI5My4zODgyNzgzODgyNzgzNykiIG9wYWNpdHk9IjEiIGNsYXNzPSJ0aWNrIj48bGluZSBzdHJva2Utb3BhY2l0eT0iMSIgc3Ryb2tlLXdpZHRoPSIxIiBjbGFzcz0idGljay1saW5lIiB4Mj0iLTYiIHN0cm9rZT0iIzAwMDAwMCIvPjx0ZXh0IHhtbDpzcGFjZT0icHJlc2VydmUiIGR4PSIwIiBmb250LXN0eWxlPSJub3JtYWwiIHRleHQtYW5jaG9yPSJlbmQiIGZvbnQtd2VpZ2h0PSJib2xkIiBmb250LXNpemU9IjE4IiB0cmFuc2Zvcm09InJvdGF0ZSgwKSIgY2xhc3M9InlBeGlzLXRpY2stdGV4dCIgZHk9IjMiIHg9Ii05IiBmaWxsPSIjMDAwMDAwIj4xMDwvdGV4dD48L2c+PGcgdHJhbnNmb3JtPSJ0cmFuc2xhdGUoMCwzMjMuNzkxMjA4NzkxMjA4NzYpIiBvcGFjaXR5PSIxIiBjbGFzcz0idGljayI+PGxpbmUgc3Ryb2tlLW9wYWNpdHk9IjEiIHN0cm9rZS13aWR0aD0iMSIgY2xhc3M9InRpY2stbGluZSIgeDI9Ii02IiBzdHJva2U9IiMwMDAwMDAiLz48dGV4dCB4bWw6c3BhY2U9InByZXNlcnZlIiBkeD0iMCIgZm9udC1zdHlsZT0ibm9ybWFsIiB0ZXh0LWFuY2hvcj0iZW5kIiBmb250LXdlaWdodD0iYm9sZCIgZm9udC1zaXplPSIxOCIgdHJhbnNmb3JtPSJyb3RhdGUoMCkiIGNsYXNzPSJ5QXhpcy10aWNrLXRleHQiIGR5PSIzIiB4PSItOSIgZmlsbD0iIzAwMDAwMCI+MTE8L3RleHQ+PC9nPjxnIHRyYW5zZm9ybT0idHJhbnNsYXRlKDAsMzU0LjE5NDEzOTE5NDEzOTE1KSIgb3BhY2l0eT0iMSIgY2xhc3M9InRpY2siPjxsaW5lIHN0cm9rZS1vcGFjaXR5PSIxIiBzdHJva2Utd2lkdGg9IjEiIGNsYXNzPSJ0aWNrLWxpbmUiIHgyPSItNiIgc3Ryb2tlPSIjMDAwMDAwIi8+PHRleHQgeG1sOnNwYWNlPSJwcmVzZXJ2ZSIgZHg9IjAiIGZvbnQtc3R5bGU9Im5vcm1hbCIgdGV4dC1hbmNob3I9ImVuZCIgZm9udC13ZWlnaHQ9ImJvbGQiIGZvbnQtc2l6ZT0iMTgiIHRyYW5zZm9ybT0icm90YXRlKDApIiBjbGFzcz0ieUF4aXMtdGljay10ZXh0IiBkeT0iMyIgeD0iLTkiIGZpbGw9IiMwMDAwMDAiPjEyPC90ZXh0PjwvZz48ZyB0cmFuc2Zvcm09InRyYW5zbGF0ZSgwLDM4NC41OTcwNjk1OTcwNjk2KSIgb3BhY2l0eT0iMSIgY2xhc3M9InRpY2siPjxsaW5lIHN0cm9rZS1vcGFjaXR5PSIxIiBzdHJva2Utd2lkdGg9IjEiIGNsYXNzPSJ0aWNrLWxpbmUiIHgyPSItNiIgc3Ryb2tlPSIjMDAwMDAwIi8+PHRleHQgeG1sOnNwYWNlPSJwcmVzZXJ2ZSIgZHg9IjAiIGZvbnQtc3R5bGU9Im5vcm1hbCIgdGV4dC1hbmNob3I9ImVuZCIgZm9udC13ZWlnaHQ9ImJvbGQiIGZvbnQtc2l6ZT0iMTgiIHRyYW5zZm9ybT0icm90YXRlKDApIiBjbGFzcz0ieUF4aXMtdGljay10ZXh0IiBkeT0iMyIgeD0iLTkiIGZpbGw9IiMwMDAwMDAiPjEzPC90ZXh0PjwvZz48ZyB0cmFuc2Zvcm09InRyYW5zbGF0ZSgwLDQxNSkiIG9wYWNpdHk9IjEiIGNsYXNzPSJ0aWNrIj48bGluZSBzdHJva2Utb3BhY2l0eT0iMSIgc3Ryb2tlLXdpZHRoPSIxIiBjbGFzcz0idGljay1saW5lIiB4Mj0iLTYiIHN0cm9rZT0iIzAwMDAwMCIvPjx0ZXh0IHhtbDpzcGFjZT0icHJlc2VydmUiIGR4PSIwIiBmb250LXN0eWxlPSJub3JtYWwiIHRleHQtYW5jaG9yPSJlbmQiIGZvbnQtd2VpZ2h0PSJib2xkIiBmb250LXNpemU9IjE4IiB0cmFuc2Zvcm09InJvdGF0ZSgwKSIgY2xhc3M9InlBeGlzLXRpY2stdGV4dCIgZHk9IjMiIHg9Ii05IiBmaWxsPSIjMDAwMDAwIj4xNDwvdGV4dD48L2c+PGcgdHJhbnNmb3JtPSJ0cmFuc2xhdGUoMCw0NDUuNDAyOTMwNDAyOTMwNCkiIG9wYWNpdHk9IjEiIGNsYXNzPSJ0aWNrIj48bGluZSBzdHJva2Utb3BhY2l0eT0iMSIgc3Ryb2tlLXdpZHRoPSIxIiBjbGFzcz0idGljay1saW5lIiB4Mj0iLTYiIHN0cm9rZT0iIzAwMDAwMCIvPjx0ZXh0IHhtbDpzcGFjZT0icHJlc2VydmUiIGR4PSIwIiBmb250LXN0eWxlPSJub3JtYWwiIHRleHQtYW5jaG9yPSJlbmQiIGZvbnQtd2VpZ2h0PSJib2xkIiBmb250LXNpemU9IjE4IiB0cmFuc2Zvcm09InJvdGF0ZSgwKSIgY2xhc3M9InlBeGlzLXRpY2stdGV4dCIgZHk9IjMiIHg9Ii05IiBmaWxsPSIjMDAwMDAwIj4xNTwvdGV4dD48L2c+PGcgdHJhbnNmb3JtPSJ0cmFuc2xhdGUoMCw0NzUuODA1ODYwODA1ODYwOCkiIG9wYWNpdHk9IjEiIGNsYXNzPSJ0aWNrIj48bGluZSBzdHJva2Utb3BhY2l0eT0iMSIgc3Ryb2tlLXdpZHRoPSIxIiBjbGFzcz0idGljay1saW5lIiB4Mj0iLTYiIHN0cm9rZT0iIzAwMDAwMCIvPjx0ZXh0IHhtbDpzcGFjZT0icHJlc2VydmUiIGR4PSIwIiBmb250LXN0eWxlPSJub3JtYWwiIHRleHQtYW5jaG9yPSJlbmQiIGZvbnQtd2VpZ2h0PSJib2xkIiBmb250LXNpemU9IjE4IiB0cmFuc2Zvcm09InJvdGF0ZSgwKSIgY2xhc3M9InlBeGlzLXRpY2stdGV4dCIgZHk9IjMiIHg9Ii05IiBmaWxsPSIjMDAwMDAwIj4xNjwvdGV4dD48L2c+PGcgdHJhbnNmb3JtPSJ0cmFuc2xhdGUoMCw1MDYuMjA4NzkxMjA4NzkxMikiIG9wYWNpdHk9IjEiIGNsYXNzPSJ0aWNrIj48bGluZSBzdHJva2Utb3BhY2l0eT0iMSIgc3Ryb2tlLXdpZHRoPSIxIiBjbGFzcz0idGljay1saW5lIiB4Mj0iLTYiIHN0cm9rZT0iIzAwMDAwMCIvPjx0ZXh0IHhtbDpzcGFjZT0icHJlc2VydmUiIGR4PSIwIiBmb250LXN0eWxlPSJub3JtYWwiIHRleHQtYW5jaG9yPSJlbmQiIGZvbnQtd2VpZ2h0PSJib2xkIiBmb250LXNpemU9IjE4IiB0cmFuc2Zvcm09InJvdGF0ZSgwKSIgY2xhc3M9InlBeGlzLXRpY2stdGV4dCIgZHk9IjMiIHg9Ii05IiBmaWxsPSIjMDAwMDAwIj4xNzwvdGV4dD48L2c+PGcgdHJhbnNmb3JtPSJ0cmFuc2xhdGUoMCw1MzYuNjExNzIxNjExNzIxNikiIG9wYWNpdHk9IjEiIGNsYXNzPSJ0aWNrIj48bGluZSBzdHJva2Utb3BhY2l0eT0iMSIgc3Ryb2tlLXdpZHRoPSIxIiBjbGFzcz0idGljay1saW5lIiB4Mj0iLTYiIHN0cm9rZT0iIzAwMDAwMCIvPjx0ZXh0IHhtbDpzcGFjZT0icHJlc2VydmUiIGR4PSIwIiBmb250LXN0eWxlPSJub3JtYWwiIHRleHQtYW5jaG9yPSJlbmQiIGZvbnQtd2VpZ2h0PSJib2xkIiBmb250LXNpemU9IjE4IiB0cmFuc2Zvcm09InJvdGF0ZSgwKSIgY2xhc3M9InlBeGlzLXRpY2stdGV4dCIgZHk9IjMiIHg9Ii05IiBmaWxsPSIjMDAwMDAwIj4xODwvdGV4dD48L2c+PGcgdHJhbnNmb3JtPSJ0cmFuc2xhdGUoMCw1NjcuMDE0NjUyMDE0NjUyKSIgb3BhY2l0eT0iMSIgY2xhc3M9InRpY2siPjxsaW5lIHN0cm9rZS1vcGFjaXR5PSIxIiBzdHJva2Utd2lkdGg9IjEiIGNsYXNzPSJ0aWNrLWxpbmUiIHgyPSItNiIgc3Ryb2tlPSIjMDAwMDAwIi8+PHRleHQgeG1sOnNwYWNlPSJwcmVzZXJ2ZSIgZHg9IjAiIGZvbnQtc3R5bGU9Im5vcm1hbCIgdGV4dC1hbmNob3I9ImVuZCIgZm9udC13ZWlnaHQ9ImJvbGQiIGZvbnQtc2l6ZT0iMTgiIHRyYW5zZm9ybT0icm90YXRlKDApIiBjbGFzcz0ieUF4aXMtdGljay10ZXh0IiBkeT0iMyIgeD0iLTkiIGZpbGw9IiMwMDAwMDAiPjE5PC90ZXh0PjwvZz48ZyB0cmFuc2Zvcm09InRyYW5zbGF0ZSgwLDU5Ny40MTc1ODI0MTc1ODI1KSIgb3BhY2l0eT0iMSIgY2xhc3M9InRpY2siPjxsaW5lIHN0cm9rZS1vcGFjaXR5PSIxIiBzdHJva2Utd2lkdGg9IjEiIGNsYXNzPSJ0aWNrLWxpbmUiIHgyPSItNiIgc3Ryb2tlPSIjMDAwMDAwIi8+PHRleHQgeG1sOnNwYWNlPSJwcmVzZXJ2ZSIgZHg9IjAiIGZvbnQtc3R5bGU9Im5vcm1hbCIgdGV4dC1hbmNob3I9ImVuZCIgZm9udC13ZWlnaHQ9ImJvbGQiIGZvbnQtc2l6ZT0iMTgiIHRyYW5zZm9ybT0icm90YXRlKDApIiBjbGFzcz0ieUF4aXMtdGljay10ZXh0IiBkeT0iMyIgeD0iLTkiIGZpbGw9IiMwMDAwMDAiPjIwPC90ZXh0PjwvZz48ZyB0cmFuc2Zvcm09InRyYW5zbGF0ZSgwLDYyNy44MjA1MTI4MjA1MTI3KSIgb3BhY2l0eT0iMSIgY2xhc3M9InRpY2siPjxsaW5lIHN0cm9rZS1vcGFjaXR5PSIxIiBzdHJva2Utd2lkdGg9IjEiIGNsYXNzPSJ0aWNrLWxpbmUiIHgyPSItNiIgc3Ryb2tlPSIjMDAwMDAwIi8+PHRleHQgeG1sOnNwYWNlPSJwcmVzZXJ2ZSIgZHg9IjAiIGZvbnQtc3R5bGU9Im5vcm1hbCIgdGV4dC1hbmNob3I9ImVuZCIgZm9udC13ZWlnaHQ9ImJvbGQiIGZvbnQtc2l6ZT0iMTgiIHRyYW5zZm9ybT0icm90YXRlKDApIiBjbGFzcz0ieUF4aXMtdGljay10ZXh0IiBkeT0iMyIgeD0iLTkiIGZpbGw9IiMwMDAwMDAiPjIxPC90ZXh0PjwvZz48ZyB0cmFuc2Zvcm09InRyYW5zbGF0ZSgwLDY1OC4yMjM0NDMyMjM0NDMyKSIgb3BhY2l0eT0iMSIgY2xhc3M9InRpY2siPjxsaW5lIHN0cm9rZS1vcGFjaXR5PSIxIiBzdHJva2Utd2lkdGg9IjEiIGNsYXNzPSJ0aWNrLWxpbmUiIHgyPSItNiIgc3Ryb2tlPSIjMDAwMDAwIi8+PHRleHQgeG1sOnNwYWNlPSJwcmVzZXJ2ZSIgZHg9IjAiIGZvbnQtc3R5bGU9Im5vcm1hbCIgdGV4dC1hbmNob3I9ImVuZCIgZm9udC13ZWlnaHQ9ImJvbGQiIGZvbnQtc2l6ZT0iMTgiIHRyYW5zZm9ybT0icm90YXRlKDApIiBjbGFzcz0ieUF4aXMtdGljay10ZXh0IiBkeT0iMyIgeD0iLTkiIGZpbGw9IiMwMDAwMDAiPjIyPC90ZXh0PjwvZz48ZyB0cmFuc2Zvcm09InRyYW5zbGF0ZSgwLDY4OC42MjYzNzM2MjYzNzM2KSIgb3BhY2l0eT0iMSIgY2xhc3M9InRpY2siPjxsaW5lIHN0cm9rZS1vcGFjaXR5PSIxIiBzdHJva2Utd2lkdGg9IjEiIGNsYXNzPSJ0aWNrLWxpbmUiIHgyPSItNiIgc3Ryb2tlPSIjMDAwMDAwIi8+PHRleHQgeG1sOnNwYWNlPSJwcmVzZXJ2ZSIgZHg9IjAiIGZvbnQtc3R5bGU9Im5vcm1hbCIgdGV4dC1hbmNob3I9ImVuZCIgZm9udC13ZWlnaHQ9ImJvbGQiIGZvbnQtc2l6ZT0iMTgiIHRyYW5zZm9ybT0icm90YXRlKDApIiBjbGFzcz0ieUF4aXMtdGljay10ZXh0IiBkeT0iMyIgeD0iLTkiIGZpbGw9IiMwMDAwMDAiPjIzPC90ZXh0PjwvZz48ZyB0cmFuc2Zvcm09InRyYW5zbGF0ZSgwLDcxOS4wMjkzMDQwMjkzMDQxKSIgb3BhY2l0eT0iMSIgY2xhc3M9InRpY2siPjxsaW5lIHN0cm9rZS1vcGFjaXR5PSIxIiBzdHJva2Utd2lkdGg9IjEiIGNsYXNzPSJ0aWNrLWxpbmUiIHgyPSItNiIgc3Ryb2tlPSIjMDAwMDAwIi8+PHRleHQgeG1sOnNwYWNlPSJwcmVzZXJ2ZSIgZHg9IjAiIGZvbnQtc3R5bGU9Im5vcm1hbCIgdGV4dC1hbmNob3I9ImVuZCIgZm9udC13ZWlnaHQ9ImJvbGQiIGZvbnQtc2l6ZT0iMTgiIHRyYW5zZm9ybT0icm90YXRlKDApIiBjbGFzcz0ieUF4aXMtdGljay10ZXh0IiBkeT0iMyIgeD0iLTkiIGZpbGw9IiMwMDAwMDAiPjI0PC90ZXh0PjwvZz48ZyB0cmFuc2Zvcm09InRyYW5zbGF0ZSgwLDc0OS40MzIyMzQ0MzIyMzQ1KSIgb3BhY2l0eT0iMSIgY2xhc3M9InRpY2siPjxsaW5lIHN0cm9rZS1vcGFjaXR5PSIxIiBzdHJva2Utd2lkdGg9IjEiIGNsYXNzPSJ0aWNrLWxpbmUiIHgyPSItNiIgc3Ryb2tlPSIjMDAwMDAwIi8+PHRleHQgeG1sOnNwYWNlPSJwcmVzZXJ2ZSIgZHg9IjAiIGZvbnQtc3R5bGU9Im5vcm1hbCIgdGV4dC1hbmNob3I9ImVuZCIgZm9udC13ZWlnaHQ9ImJvbGQiIGZvbnQtc2l6ZT0iMTgiIHRyYW5zZm9ybT0icm90YXRlKDApIiBjbGFzcz0ieUF4aXMtdGljay10ZXh0IiBkeT0iMyIgeD0iLTkiIGZpbGw9IiMwMDAwMDAiPjI1PC90ZXh0PjwvZz48ZyB0cmFuc2Zvcm09InRyYW5zbGF0ZSgwLDc3OS44MzUxNjQ4MzUxNjQ3KSIgb3BhY2l0eT0iMSIgY2xhc3M9InRpY2siPjxsaW5lIHN0cm9rZS1vcGFjaXR5PSIxIiBzdHJva2Utd2lkdGg9IjEiIGNsYXNzPSJ0aWNrLWxpbmUiIHgyPSItNiIgc3Ryb2tlPSIjMDAwMDAwIi8+PHRleHQgeG1sOnNwYWNlPSJwcmVzZXJ2ZSIgZHg9IjAiIGZvbnQtc3R5bGU9Im5vcm1hbCIgdGV4dC1hbmNob3I9ImVuZCIgZm9udC13ZWlnaHQ9ImJvbGQiIGZvbnQtc2l6ZT0iMTgiIHRyYW5zZm9ybT0icm90YXRlKDApIiBjbGFzcz0ieUF4aXMtdGljay10ZXh0IiBkeT0iMyIgeD0iLTkiIGZpbGw9IiMwMDAwMDAiPjI2PC90ZXh0PjwvZz48ZyB0cmFuc2Zvcm09InRyYW5zbGF0ZSgwLDgxMC4yMzgwOTUyMzgwOTUyKSIgb3BhY2l0eT0iMSIgY2xhc3M9InRpY2siPjxsaW5lIHN0cm9rZS1vcGFjaXR5PSIxIiBzdHJva2Utd2lkdGg9IjEiIGNsYXNzPSJ0aWNrLWxpbmUiIHgyPSItNiIgc3Ryb2tlPSIjMDAwMDAwIi8+PHRleHQgeG1sOnNwYWNlPSJwcmVzZXJ2ZSIgZHg9IjAiIGZvbnQtc3R5bGU9Im5vcm1hbCIgdGV4dC1hbmNob3I9ImVuZCIgZm9udC13ZWlnaHQ9ImJvbGQiIGZvbnQtc2l6ZT0iMTgiIHRyYW5zZm9ybT0icm90YXRlKDApIiBjbGFzcz0ieUF4aXMtdGljay10ZXh0IiBkeT0iMyIgeD0iLTkiIGZpbGw9IiMwMDAwMDAiPjI3PC90ZXh0PjwvZz48dGV4dCB4bWw6c3BhY2U9InByZXNlcnZlIiBmb250LXN0eWxlPSJub3JtYWwiIGZvbnQtd2VpZ2h0PSJib2xkIiBmaWxsPSIjMDAwMDAwIiBmb250LXNpemU9IjIwIiB5PSItNDAiIHg9Ii00MTUiIHRyYW5zZm9ybT0icm90YXRlKC05MCkiIHRleHQtYW5jaG9yPSJtaWRkbGUiIGNsYXNzPSJ5QXhpcy1sYWJlbCI+PHRzcGFuPlR5cGVzIG9mIEFkdmVyc2UgRHJ1ZyBSZWFjdGlvbnM8L3RzcGFuPjwvdGV4dD48L2c+PGRlZnM+PGxpbmVhckdyYWRpZW50IHkyPSI1MCUiIHkxPSI1MCUiIHgyPSIwJSIgeDE9IjEwMCUiIGlkPSJjYm95LTE6R2VuZXJhbF9kaXNvcmRlcnNfYW5kX2FkbWluaXN0cmF0aW9uX3NpdGVfY29uZGl0aW9ucy0wIj48c3RvcCBzdG9wLW9wYWNpdHk9IjAiIHN0b3AtY29sb3I9IiNjY2NjY2MiIG9mZnNldD0iMCUiLz48c3RvcCBzdG9wLW9wYWNpdHk9IjAuMyIgc3RvcC1jb2xvcj0iI2NjY2NjYyIgb2Zmc2V0PSI1MCUiLz48c3RvcCBzdG9wLW9wYWNpdHk9IjEiIHN0b3AtY29sb3I9IiNjY2NjY2MiIG9mZnNldD0iMTAwJSIvPjwvbGluZWFyR3JhZGllbnQ+PGxpbmVhckdyYWRpZW50IHkyPSI1MCUiIHkxPSI1MCUiIHgyPSIwJSIgeDE9IjEwMCUiIGlkPSJjYm95LTI6U2tpbl9hbmRfc3ViY3V0YW5lb3VzX3Rpc3N1ZV9kaXNvcmRlcnMtMCI+PHN0b3Agc3RvcC1vcGFjaXR5PSIwIiBzdG9wLWNvbG9yPSIjY2NjY2NjIiBvZmZzZXQ9IjAlIi8+PHN0b3Agc3RvcC1vcGFjaXR5PSIwLjMiIHN0b3AtY29sb3I9IiNjY2NjY2MiIG9mZnNldD0iNTAlIi8+PHN0b3Agc3RvcC1vcGFjaXR5PSIxIiBzdG9wLWNvbG9yPSIjY2NjY2NjIiBvZmZzZXQ9IjEwMCUiLz48L2xpbmVhckdyYWRpZW50PjxsaW5lYXJHcmFkaWVudCB5Mj0iNTAlIiB5MT0iNTAlIiB4Mj0iMCUiIHgxPSIxMDAlIiBpZD0iY2JveS0zOk5lcnZvdXNfc3lzdGVtX2Rpc29yZGVycy0wIj48c3RvcCBzdG9wLW9wYWNpdHk9IjAiIHN0b3AtY29sb3I9IiNjY2NjY2MiIG9mZnNldD0iMCUiLz48c3RvcCBzdG9wLW9wYWNpdHk9IjAuMyIgc3RvcC1jb2xvcj0iI2NjY2NjYyIgb2Zmc2V0PSI1MCUiLz48c3RvcCBzdG9wLW9wYWNpdHk9IjEiIHN0b3AtY29sb3I9IiNjY2NjY2MiIG9mZnNldD0iMTAwJSIvPjwvbGluZWFyR3JhZGllbnQ+PGxpbmVhckdyYWRpZW50IHkyPSI1MCUiIHkxPSI1MCUiIHgyPSIwJSIgeDE9IjEwMCUiIGlkPSJjYm95LTQ6R2FzdHJvaW50ZXN0aW5hbF9kaXNvcmRlcnMtMCI+PHN0b3Agc3RvcC1vcGFjaXR5PSIwIiBzdG9wLWNvbG9yPSIjY2NjY2NjIiBvZmZzZXQ9IjAlIi8+PHN0b3Agc3RvcC1vcGFjaXR5PSIwLjMiIHN0b3AtY29sb3I9IiNjY2NjY2MiIG9mZnNldD0iNTAlIi8+PHN0b3Agc3RvcC1vcGFjaXR5PSIxIiBzdG9wLWNvbG9yPSIjY2NjY2NjIiBvZmZzZXQ9IjEwMCUiLz48L2xpbmVhckdyYWRpZW50PjxsaW5lYXJHcmFkaWVudCB5Mj0iNTAlIiB5MT0iNTAlIiB4Mj0iMCUiIHgxPSIxMDAlIiBpZD0iY2JveS01OlZhc2N1bGFyX2Rpc29yZGVycy0wIj48c3RvcCBzdG9wLW9wYWNpdHk9IjAiIHN0b3AtY29sb3I9IiNjY2NjY2MiIG9mZnNldD0iMCUiLz48c3RvcCBzdG9wLW9wYWNpdHk9IjAuMyIgc3RvcC1jb2xvcj0iI2NjY2NjYyIgb2Zmc2V0PSI1MCUiLz48c3RvcCBzdG9wLW9wYWNpdHk9IjEiIHN0b3AtY29sb3I9IiNjY2NjY2MiIG9mZnNldD0iMTAwJSIvPjwvbGluZWFyR3JhZGllbnQ+PGxpbmVhckdyYWRpZW50IHkyPSI1MCUiIHkxPSI1MCUiIHgyPSIwJSIgeDE9IjEwMCUiIGlkPSJjYm95LTY6Q2FyZGlhY19kaXNvcmRlcnMtMCI+PHN0b3Agc3RvcC1vcGFjaXR5PSIwIiBzdG9wLWNvbG9yPSIjY2NjY2NjIiBvZmZzZXQ9IjAlIi8+PHN0b3Agc3RvcC1vcGFjaXR5PSIwLjMiIHN0b3AtY29sb3I9IiNjY2NjY2MiIG9mZnNldD0iNTAlIi8+PHN0b3Agc3RvcC1vcGFjaXR5PSIxIiBzdG9wLWNvbG9yPSIjY2NjY2NjIiBvZmZzZXQ9IjEwMCUiLz48L2xpbmVhckdyYWRpZW50PjxsaW5lYXJHcmFkaWVudCB5Mj0iNTAlIiB5MT0iNTAlIiB4Mj0iMCUiIHgxPSIxMDAlIiBpZD0iY2JveS03OkltbXVuZV9zeXN0ZW1fZGlzb3JkZXJzLTAiPjxzdG9wIHN0b3Atb3BhY2l0eT0iMCIgc3RvcC1jb2xvcj0iI2NjY2NjYyIgb2Zmc2V0PSIwJSIvPjxzdG9wIHN0b3Atb3BhY2l0eT0iMC4zIiBzdG9wLWNvbG9yPSIjY2NjY2NjIiBvZmZzZXQ9IjUwJSIvPjxzdG9wIHN0b3Atb3BhY2l0eT0iMSIgc3RvcC1jb2xvcj0iI2NjY2NjYyIgb2Zmc2V0PSIxMDAlIi8+PC9saW5lYXJHcmFkaWVudD48bGluZWFyR3JhZGllbnQgeTI9IjUwJSIgeTE9IjUwJSIgeDI9IjAlIiB4MT0iMTAwJSIgaWQ9ImNib3ktODpSZXNwaXJhdG9yeSxfdGhvcmFjaWNfYW5kX21lZGlhc3RpbmFsX2Rpc29yZGVycy0wIj48c3RvcCBzdG9wLW9wYWNpdHk9IjAiIHN0b3AtY29sb3I9IiNjY2NjY2MiIG9mZnNldD0iMCUiLz48c3RvcCBzdG9wLW9wYWNpdHk9IjAuMyIgc3RvcC1jb2xvcj0iI2NjY2NjYyIgb2Zmc2V0PSI1MCUiLz48c3RvcCBzdG9wLW9wYWNpdHk9IjEiIHN0b3AtY29sb3I9IiNjY2NjY2MiIG9mZnNldD0iMTAwJSIvPjwvbGluZWFyR3JhZGllbnQ+PGxpbmVhckdyYWRpZW50IHkyPSI1MCUiIHkxPSI1MCUiIHgyPSIwJSIgeDE9IjEwMCUiIGlkPSJjYm95LTk6SW52ZXN0aWdhdGlvbnMtMCI+PHN0b3Agc3RvcC1vcGFjaXR5PSIwIiBzdG9wLWNvbG9yPSIjY2NjY2NjIiBvZmZzZXQ9IjAlIi8+PHN0b3Agc3RvcC1vcGFjaXR5PSIwLjMiIHN0b3AtY29sb3I9IiNjY2NjY2MiIG9mZnNldD0iNTAlIi8+PHN0b3Agc3RvcC1vcGFjaXR5PSIxIiBzdG9wLWNvbG9yPSIjY2NjY2NjIiBvZmZzZXQ9IjEwMCUiLz48L2xpbmVhckdyYWRpZW50PjxsaW5lYXJHcmFkaWVudCB5Mj0iNTAlIiB5MT0iNTAlIiB4Mj0iMCUiIHgxPSIxMDAlIiBpZD0iY2JveS0xMDpNZXRhYm9saXNtX2FuZF9udXRyaXRpb25fZGlzb3JkZXJzLTAiPjxzdG9wIHN0b3Atb3BhY2l0eT0iMCIgc3RvcC1jb2xvcj0iI2NjY2NjYyIgb2Zmc2V0PSIwJSIvPjxzdG9wIHN0b3Atb3BhY2l0eT0iMC4zIiBzdG9wLWNvbG9yPSIjY2NjY2NjIiBvZmZzZXQ9IjUwJSIvPjxzdG9wIHN0b3Atb3BhY2l0eT0iMSIgc3RvcC1jb2xvcj0iI2NjY2NjYyIgb2Zmc2V0PSIxMDAlIi8+PC9saW5lYXJHcmFkaWVudD48bGluZWFyR3JhZGllbnQgeTI9IjUwJSIgeTE9IjUwJSIgeDI9IjAlIiB4MT0iMTAwJSIgaWQ9ImNib3ktMTE6UHN5Y2hpYXRyaWNfZGlzb3JkZXJzLTAiPjxzdG9wIHN0b3Atb3BhY2l0eT0iMCIgc3RvcC1jb2xvcj0iI2NjY2NjYyIgb2Zmc2V0PSIwJSIvPjxzdG9wIHN0b3Atb3BhY2l0eT0iMC4zIiBzdG9wLWNvbG9yPSIjY2NjY2NjIiBvZmZzZXQ9IjUwJSIvPjxzdG9wIHN0b3Atb3BhY2l0eT0iMSIgc3RvcC1jb2xvcj0iI2NjY2NjYyIgb2Zmc2V0PSIxMDAlIi8+PC9saW5lYXJHcmFkaWVudD48bGluZWFyR3JhZGllbnQgeTI9IjUwJSIgeTE9IjUwJSIgeDI9IjAlIiB4MT0iMTAwJSIgaWQ9ImNib3ktMTI6TXVzY3Vsb3NrZWxldGFsX2FuZF9jb25uZWN0aXZlX3Rpc3N1ZV9kaXNvcmRlcnMtMCI+PHN0b3Agc3RvcC1vcGFjaXR5PSIwIiBzdG9wLWNvbG9yPSIjY2NjY2NjIiBvZmZzZXQ9IjAlIi8+PHN0b3Agc3RvcC1vcGFjaXR5PSIwLjMiIHN0b3AtY29sb3I9IiNjY2NjY2MiIG9mZnNldD0iNTAlIi8+PHN0b3Agc3RvcC1vcGFjaXR5PSIxIiBzdG9wLWNvbG9yPSIjY2NjY2NjIiBvZmZzZXQ9IjEwMCUiLz48L2xpbmVhckdyYWRpZW50PjxsaW5lYXJHcmFkaWVudCB5Mj0iNTAlIiB5MT0iNTAlIiB4Mj0iMCUiIHgxPSIxMDAlIiBpZD0iY2JveS0xMzpJbmp1cnksX3BvaXNvbmluZ19hbmRfcHJvY2VkdXJhbF9jb21wbGljYXRpb25zXy0wIj48c3RvcCBzdG9wLW9wYWNpdHk9IjAiIHN0b3AtY29sb3I9IiNjY2NjY2MiIG9mZnNldD0iMCUiLz48c3RvcCBzdG9wLW9wYWNpdHk9IjAuMyIgc3RvcC1jb2xvcj0iI2NjY2NjYyIgb2Zmc2V0PSI1MCUiLz48c3RvcCBzdG9wLW9wYWNpdHk9IjEiIHN0b3AtY29sb3I9IiNjY2NjY2MiIG9mZnNldD0iMTAwJSIvPjwvbGluZWFyR3JhZGllbnQ+PGxpbmVhckdyYWRpZW50IHkyPSI1MCUiIHkxPSI1MCUiIHgyPSIwJSIgeDE9IjEwMCUiIGlkPSJjYm95LTE0OkluZmVjdGlvbnNfYW5kX2luZmVzdGF0aW9ucy0wIj48c3RvcCBzdG9wLW9wYWNpdHk9IjAiIHN0b3AtY29sb3I9IiNjY2NjY2MiIG9mZnNldD0iMCUiLz48c3RvcCBzdG9wLW9wYWNpdHk9IjAuMyIgc3RvcC1jb2xvcj0iI2NjY2NjYyIgb2Zmc2V0PSI1MCUiLz48c3RvcCBzdG9wLW9wYWNpdHk9IjEiIHN0b3AtY29sb3I9IiNjY2NjY2MiIG9mZnNldD0iMTAwJSIvPjwvbGluZWFyR3JhZGllbnQ+PGxpbmVhckdyYWRpZW50IHkyPSI1MCUiIHkxPSI1MCUiIHgyPSIwJSIgeDE9IjEwMCUiIGlkPSJjYm95LTE1OlJlbmFsX2FuZF91cmluYXJ5X2Rpc29yZGVycy0wIj48c3RvcCBzdG9wLW9wYWNpdHk9IjAiIHN0b3AtY29sb3I9IiNjY2NjY2MiIG9mZnNldD0iMCUiLz48c3RvcCBzdG9wLW9wYWNpdHk9IjAuMyIgc3RvcC1jb2xvcj0iI2NjY2NjYyIgb2Zmc2V0PSI1MCUiLz48c3RvcCBzdG9wLW9wYWNpdHk9IjEiIHN0b3AtY29sb3I9IiNjY2NjY2MiIG9mZnNldD0iMTAwJSIvPjwvbGluZWFyR3JhZGllbnQ+PGxpbmVhckdyYWRpZW50IHkyPSI1MCUiIHkxPSI1MCUiIHgyPSIwJSIgeDE9IjEwMCUiIGlkPSJjYm95LTE2OkJsb29kX2FuZF9seW1waGF0aWNfc3lzdGVtX2Rpc29yZGVycy0wIj48c3RvcCBzdG9wLW9wYWNpdHk9IjAiIHN0b3AtY29sb3I9IiNjY2NjY2MiIG9mZnNldD0iMCUiLz48c3RvcCBzdG9wLW9wYWNpdHk9IjAuMyIgc3RvcC1jb2xvcj0iI2NjY2NjYyIgb2Zmc2V0PSI1MCUiLz48c3RvcCBzdG9wLW9wYWNpdHk9IjEiIHN0b3AtY29sb3I9IiNjY2NjY2MiIG9mZnNldD0iMTAwJSIvPjwvbGluZWFyR3JhZGllbnQ+PGxpbmVhckdyYWRpZW50IHkyPSI1MCUiIHkxPSI1MCUiIHgyPSIwJSIgeDE9IjEwMCUiIGlkPSJjYm95LTE3OkV5ZV9kaXNvcmRlcnNfLTAiPjxzdG9wIHN0b3Atb3BhY2l0eT0iMCIgc3RvcC1jb2xvcj0iI2NjY2NjYyIgb2Zmc2V0PSIwJSIvPjxzdG9wIHN0b3Atb3BhY2l0eT0iMC4zIiBzdG9wLWNvbG9yPSIjY2NjY2NjIiBvZmZzZXQ9IjUwJSIvPjxzdG9wIHN0b3Atb3BhY2l0eT0iMSIgc3RvcC1jb2xvcj0iI2NjY2NjYyIgb2Zmc2V0PSIxMDAlIi8+PC9saW5lYXJHcmFkaWVudD48bGluZWFyR3JhZGllbnQgeTI9IjUwJSIgeTE9IjUwJSIgeDI9IjAlIiB4MT0iMTAwJSIgaWQ9ImNib3ktMTg6SGVwYXRvYmlsaWFyeV9kaXNvcmRlcnMtMCI+PHN0b3Agc3RvcC1vcGFjaXR5PSIwIiBzdG9wLWNvbG9yPSIjY2NjY2NjIiBvZmZzZXQ9IjAlIi8+PHN0b3Agc3RvcC1vcGFjaXR5PSIwLjMiIHN0b3AtY29sb3I9IiNjY2NjY2MiIG9mZnNldD0iNTAlIi8+PHN0b3Agc3RvcC1vcGFjaXR5PSIxIiBzdG9wLWNvbG9yPSIjY2NjY2NjIiBvZmZzZXQ9IjEwMCUiLz48L2xpbmVhckdyYWRpZW50PjxsaW5lYXJHcmFkaWVudCB5Mj0iNTAlIiB5MT0iNTAlIiB4Mj0iMCUiIHgxPSIxMDAlIiBpZD0iY2JveS0xOTpSZXByb2R1Y3RpdmVfc3lzdGVtX2FuZF9icmVhc3RfZGlzb3JkZXJzLTAiPjxzdG9wIHN0b3Atb3BhY2l0eT0iMCIgc3RvcC1jb2xvcj0iI2NjY2NjYyIgb2Zmc2V0PSIwJSIvPjxzdG9wIHN0b3Atb3BhY2l0eT0iMC4zIiBzdG9wLWNvbG9yPSIjY2NjY2NjIiBvZmZzZXQ9IjUwJSIvPjxzdG9wIHN0b3Atb3BhY2l0eT0iMSIgc3RvcC1jb2xvcj0iI2NjY2NjYyIgb2Zmc2V0PSIxMDAlIi8+PC9saW5lYXJHcmFkaWVudD48bGluZWFyR3JhZGllbnQgeTI9IjUwJSIgeTE9IjUwJSIgeDI9IjAlIiB4MT0iMTAwJSIgaWQ9ImNib3ktMjA6RW5kb2NyaW5lX2Rpc29yZGVycy0wIj48c3RvcCBzdG9wLW9wYWNpdHk9IjAiIHN0b3AtY29sb3I9IiNjY2NjY2MiIG9mZnNldD0iMCUiLz48c3RvcCBzdG9wLW9wYWNpdHk9IjAuMyIgc3RvcC1jb2xvcj0iI2NjY2NjYyIgb2Zmc2V0PSI1MCUiLz48c3RvcCBzdG9wLW9wYWNpdHk9IjEiIHN0b3AtY29sb3I9IiNjY2NjY2MiIG9mZnNldD0iMTAwJSIvPjwvbGluZWFyR3JhZGllbnQ+PGxpbmVhckdyYWRpZW50IHkyPSI1MCUiIHkxPSI1MCUiIHgyPSIwJSIgeDE9IjEwMCUiIGlkPSJjYm95LTIxOkVhcl9hbmRfbGFieXJpbnRoX2Rpc29yZGVycy0wIj48c3RvcCBzdG9wLW9wYWNpdHk9IjAiIHN0b3AtY29sb3I9IiNjY2NjY2MiIG9mZnNldD0iMCUiLz48c3RvcCBzdG9wLW9wYWNpdHk9IjAuMyIgc3RvcC1jb2xvcj0iI2NjY2NjYyIgb2Zmc2V0PSI1MCUiLz48c3RvcCBzdG9wLW9wYWNpdHk9IjEiIHN0b3AtY29sb3I9IiNjY2NjY2MiIG9mZnNldD0iMTAwJSIvPjwvbGluZWFyR3JhZGllbnQ+PGxpbmVhckdyYWRpZW50IHkyPSI1MCUiIHkxPSI1MCUiIHgyPSIwJSIgeDE9IjEwMCUiIGlkPSJjYm95LTIyOk5lb3BsYXNtc19iZW5pZ24sX21hbGlnbmFudF9hbmRfdW5zcGVjaWZpZWRfKGluY2xfY3lzdHNfYW5kX3BvbHlwcyktMCI+PHN0b3Agc3RvcC1vcGFjaXR5PSIwIiBzdG9wLWNvbG9yPSIjY2NjY2NjIiBvZmZzZXQ9IjAlIi8+PHN0b3Agc3RvcC1vcGFjaXR5PSIwLjMiIHN0b3AtY29sb3I9IiNjY2NjY2MiIG9mZnNldD0iNTAlIi8+PHN0b3Agc3RvcC1vcGFjaXR5PSIxIiBzdG9wLWNvbG9yPSIjY2NjY2NjIiBvZmZzZXQ9IjEwMCUiLz48L2xpbmVhckdyYWRpZW50PjxsaW5lYXJHcmFkaWVudCB5Mj0iNTAlIiB5MT0iNTAlIiB4Mj0iMCUiIHgxPSIxMDAlIiBpZD0iY2JveS0yMzpQcmVnbmFuY3ksX3B1ZXJwZXJpdW1fYW5kX3BlcmluYXRhbF9jb25kaXRpb25zLTAiPjxzdG9wIHN0b3Atb3BhY2l0eT0iMCIgc3RvcC1jb2xvcj0iI2NjY2NjYyIgb2Zmc2V0PSIwJSIvPjxzdG9wIHN0b3Atb3BhY2l0eT0iMC4zIiBzdG9wLWNvbG9yPSIjY2NjY2NjIiBvZmZzZXQ9IjUwJSIvPjxzdG9wIHN0b3Atb3BhY2l0eT0iMSIgc3RvcC1jb2xvcj0iI2NjY2NjYyIgb2Zmc2V0PSIxMDAlIi8+PC9saW5lYXJHcmFkaWVudD48bGluZWFyR3JhZGllbnQgeTI9IjUwJSIgeTE9IjUwJSIgeDI9IjAlIiB4MT0iMTAwJSIgaWQ9ImNib3ktMjQ6Q29uZ2VuaXRhbCxfZmFtaWxpYWxfYW5kX2dlbmV0aWNfZGlzb3JkZXJzLTAiPjxzdG9wIHN0b3Atb3BhY2l0eT0iMCIgc3RvcC1jb2xvcj0iI2NjY2NjYyIgb2Zmc2V0PSIwJSIvPjxzdG9wIHN0b3Atb3BhY2l0eT0iMC4zIiBzdG9wLWNvbG9yPSIjY2NjY2NjIiBvZmZzZXQ9IjUwJSIvPjxzdG9wIHN0b3Atb3BhY2l0eT0iMSIgc3RvcC1jb2xvcj0iI2NjY2NjYyIgb2Zmc2V0PSIxMDAlIi8+PC9saW5lYXJHcmFkaWVudD48bGluZWFyR3JhZGllbnQgeTI9IjUwJSIgeTE9IjUwJSIgeDI9IjAlIiB4MT0iMTAwJSIgaWQ9ImNib3ktMjU6U3VyZ2ljYWxfYW5kX21lZGljYWxfcHJvY2VkdXJlcy0wIj48c3RvcCBzdG9wLW9wYWNpdHk9IjAiIHN0b3AtY29sb3I9IiNjY2NjY2MiIG9mZnNldD0iMCUiLz48c3RvcCBzdG9wLW9wYWNpdHk9IjAuMyIgc3RvcC1jb2xvcj0iI2NjY2NjYyIgb2Zmc2V0PSI1MCUiLz48c3RvcCBzdG9wLW9wYWNpdHk9IjEiIHN0b3AtY29sb3I9IiNjY2NjY2MiIG9mZnNldD0iMTAwJSIvPjwvbGluZWFyR3JhZGllbnQ+PGxpbmVhckdyYWRpZW50IHkyPSI1MCUiIHkxPSI1MCUiIHgyPSIwJSIgeDE9IjEwMCUiIGlkPSJjYm95LTI2OlNvY2lhbF9jaXJjdW1zdGFuY2VzLTAiPjxzdG9wIHN0b3Atb3BhY2l0eT0iMCIgc3RvcC1jb2xvcj0iI2NjY2NjYyIgb2Zmc2V0PSIwJSIvPjxzdG9wIHN0b3Atb3BhY2l0eT0iMC4zIiBzdG9wLWNvbG9yPSIjY2NjY2NjIiBvZmZzZXQ9IjUwJSIvPjxzdG9wIHN0b3Atb3BhY2l0eT0iMSIgc3RvcC1jb2xvcj0iI2NjY2NjYyIgb2Zmc2V0PSIxMDAlIi8+PC9saW5lYXJHcmFkaWVudD48bGluZWFyR3JhZGllbnQgeTI9IjUwJSIgeTE9IjUwJSIgeDI9IjAlIiB4MT0iMTAwJSIgaWQ9ImNib3ktMjc6UHJvZHVjdF9pc3N1ZXMtMCI+PHN0b3Agc3RvcC1vcGFjaXR5PSIwIiBzdG9wLWNvbG9yPSIjY2NjY2NjIiBvZmZzZXQ9IjAlIi8+PHN0b3Agc3RvcC1vcGFjaXR5PSIwLjMiIHN0b3AtY29sb3I9IiNjY2NjY2MiIG9mZnNldD0iNTAlIi8+PHN0b3Agc3RvcC1vcGFjaXR5PSIxIiBzdG9wLWNvbG9yPSIjY2NjY2NjIiBvZmZzZXQ9IjEwMCUiLz48L2xpbmVhckdyYWRpZW50PjwvZGVmcz48L2c+PGcgY2xhc3M9IiIgdGV4dC1hbmNob3I9InN0YXJ0IiB0cmFuc2Zvcm09InRyYW5zbGF0ZSg3MTUuNjUwNTczNzMwNDY4OCwxMDAuNTAxODA4MTY2NTAzOSkiPjx0ZXh0IHhtbDpzcGFjZT0icHJlc2VydmUiIHk9Ii0xMCIgeD0iMCIgZm9udC1zdHlsZT0ibm9ybWFsIiB0ZXh0LWFuY2hvcj0ic3RhcnQiIGZvbnQtd2VpZ2h0PSJib2xkIiBmaWxsPSIjMDAwMDAwIiBmb250LXNpemU9IjE2IiBjbGFzcz0ibGVnZW5kLXRpdGxlLXRleHQtY29sb3ItYmxvY2stb2YteUF4aXMtMCIvPjxnIHRyYW5zZm9ybT0idHJhbnNsYXRlKDAsMCkiPjxnIHRyYW5zZm9ybT0idHJhbnNsYXRlKDAsMCkiPjxyZWN0IHJ5PSIyIiByeD0iMiIgc3Ryb2tlLW9wYWNpdHk9IjEiIHN0cm9rZS13aWR0aD0iMCIgc3Ryb2tlPSIjMDAwMDAwIiBmaWxsLW9wYWNpdHk9IjEiIGZpbGw9IiNjY2NjY2MiIGNsYXNzPSJsZWdlbmQtcmVjdC1zdHlsZS1jb2xvci1ibG9jay1vZi15QXhpcy0wIiBoZWlnaHQ9IjAiIHdpZHRoPSIwIiB4PSIwIi8+PHRleHQgeG1sOnNwYWNlPSJwcmVzZXJ2ZSIgeD0iLTUiIGZvbnQtc3R5bGU9Im5vcm1hbCIgdGV4dC1hbmNob3I9InN0YXJ0IiBmb250LXdlaWdodD0iYm9sZCIgZmlsbD0iIzAwMDAwMCIgZm9udC1zaXplPSIxNiIgeT0iMCIgZHk9IjAuM2VtIiBjbGFzcz0ibGVnZW5kLWl0ZW0tdGV4dC1jb2xvci1ibG9jay1vZi15QXhpcy0wIj4xOkdlbmVyYWwgZGlzb3JkZXJzIGFuZCBhZG1pbmlzdHJhdGlvbiBzaXRlIGNvbmRpdGlvbnM8L3RleHQ+PC9nPjxnIHRyYW5zZm9ybT0idHJhbnNsYXRlKDAsMzApIj48cmVjdCByeT0iMiIgcng9IjIiIHN0cm9rZS1vcGFjaXR5PSIxIiBzdHJva2Utd2lkdGg9IjAiIHN0cm9rZT0iIzAwMDAwMCIgZmlsbC1vcGFjaXR5PSIxIiBmaWxsPSIjY2NjY2NjIiBjbGFzcz0ibGVnZW5kLXJlY3Qtc3R5bGUtY29sb3ItYmxvY2stb2YteUF4aXMtMCIgaGVpZ2h0PSIwIiB3aWR0aD0iMCIgeD0iMCIvPjx0ZXh0IHhtbDpzcGFjZT0icHJlc2VydmUiIHg9Ii01IiBmb250LXN0eWxlPSJub3JtYWwiIHRleHQtYW5jaG9yPSJzdGFydCIgZm9udC13ZWlnaHQ9ImJvbGQiIGZpbGw9IiMwMDAwMDAiIGZvbnQtc2l6ZT0iMTYiIHk9IjAiIGR5PSIwLjNlbSIgY2xhc3M9ImxlZ2VuZC1pdGVtLXRleHQtY29sb3ItYmxvY2stb2YteUF4aXMtMCI+MjpTa2luIGFuZCBzdWJjdXRhbmVvdXMgdGlzc3VlIGRpc29yZGVyczwvdGV4dD48L2c+PGcgdHJhbnNmb3JtPSJ0cmFuc2xhdGUoMCw2MCkiPjxyZWN0IHJ5PSIyIiByeD0iMiIgc3Ryb2tlLW9wYWNpdHk9IjEiIHN0cm9rZS13aWR0aD0iMCIgc3Ryb2tlPSIjMDAwMDAwIiBmaWxsLW9wYWNpdHk9IjEiIGZpbGw9IiNjY2NjY2MiIGNsYXNzPSJsZWdlbmQtcmVjdC1zdHlsZS1jb2xvci1ibG9jay1vZi15QXhpcy0wIiBoZWlnaHQ9IjAiIHdpZHRoPSIwIiB4PSIwIi8+PHRleHQgeG1sOnNwYWNlPSJwcmVzZXJ2ZSIgeD0iLTUiIGZvbnQtc3R5bGU9Im5vcm1hbCIgdGV4dC1hbmNob3I9InN0YXJ0IiBmb250LXdlaWdodD0iYm9sZCIgZmlsbD0iIzAwMDAwMCIgZm9udC1zaXplPSIxNiIgeT0iMCIgZHk9IjAuM2VtIiBjbGFzcz0ibGVnZW5kLWl0ZW0tdGV4dC1jb2xvci1ibG9jay1vZi15QXhpcy0wIj4zOk5lcnZvdXMgc3lzdGVtIGRpc29yZGVyczwvdGV4dD48L2c+PGcgdHJhbnNmb3JtPSJ0cmFuc2xhdGUoMCw5MCkiPjxyZWN0IHJ5PSIyIiByeD0iMiIgc3Ryb2tlLW9wYWNpdHk9IjEiIHN0cm9rZS13aWR0aD0iMCIgc3Ryb2tlPSIjMDAwMDAwIiBmaWxsLW9wYWNpdHk9IjEiIGZpbGw9IiNjY2NjY2MiIGNsYXNzPSJsZWdlbmQtcmVjdC1zdHlsZS1jb2xvci1ibG9jay1vZi15QXhpcy0wIiBoZWlnaHQ9IjAiIHdpZHRoPSIwIiB4PSIwIi8+PHRleHQgeG1sOnNwYWNlPSJwcmVzZXJ2ZSIgeD0iLTUiIGZvbnQtc3R5bGU9Im5vcm1hbCIgdGV4dC1hbmNob3I9InN0YXJ0IiBmb250LXdlaWdodD0iYm9sZCIgZmlsbD0iIzAwMDAwMCIgZm9udC1zaXplPSIxNiIgeT0iMCIgZHk9IjAuM2VtIiBjbGFzcz0ibGVnZW5kLWl0ZW0tdGV4dC1jb2xvci1ibG9jay1vZi15QXhpcy0wIj40Okdhc3Ryb2ludGVzdGluYWwgZGlzb3JkZXJzPC90ZXh0PjwvZz48ZyB0cmFuc2Zvcm09InRyYW5zbGF0ZSgwLDEyMCkiPjxyZWN0IHJ5PSIyIiByeD0iMiIgc3Ryb2tlLW9wYWNpdHk9IjEiIHN0cm9rZS13aWR0aD0iMCIgc3Ryb2tlPSIjMDAwMDAwIiBmaWxsLW9wYWNpdHk9IjEiIGZpbGw9IiNjY2NjY2MiIGNsYXNzPSJsZWdlbmQtcmVjdC1zdHlsZS1jb2xvci1ibG9jay1vZi15QXhpcy0wIiBoZWlnaHQ9IjAiIHdpZHRoPSIwIiB4PSIwIi8+PHRleHQgeG1sOnNwYWNlPSJwcmVzZXJ2ZSIgeD0iLTUiIGZvbnQtc3R5bGU9Im5vcm1hbCIgdGV4dC1hbmNob3I9InN0YXJ0IiBmb250LXdlaWdodD0iYm9sZCIgZmlsbD0iIzAwMDAwMCIgZm9udC1zaXplPSIxNiIgeT0iMCIgZHk9IjAuM2VtIiBjbGFzcz0ibGVnZW5kLWl0ZW0tdGV4dC1jb2xvci1ibG9jay1vZi15QXhpcy0wIj41OlZhc2N1bGFyIGRpc29yZGVyczwvdGV4dD48L2c+PGcgdHJhbnNmb3JtPSJ0cmFuc2xhdGUoMCwxNTApIj48cmVjdCByeT0iMiIgcng9IjIiIHN0cm9rZS1vcGFjaXR5PSIxIiBzdHJva2Utd2lkdGg9IjAiIHN0cm9rZT0iIzAwMDAwMCIgZmlsbC1vcGFjaXR5PSIxIiBmaWxsPSIjY2NjY2NjIiBjbGFzcz0ibGVnZW5kLXJlY3Qtc3R5bGUtY29sb3ItYmxvY2stb2YteUF4aXMtMCIgaGVpZ2h0PSIwIiB3aWR0aD0iMCIgeD0iMCIvPjx0ZXh0IHhtbDpzcGFjZT0icHJlc2VydmUiIHg9Ii01IiBmb250LXN0eWxlPSJub3JtYWwiIHRleHQtYW5jaG9yPSJzdGFydCIgZm9udC13ZWlnaHQ9ImJvbGQiIGZpbGw9IiMwMDAwMDAiIGZvbnQtc2l6ZT0iMTYiIHk9IjAiIGR5PSIwLjNlbSIgY2xhc3M9ImxlZ2VuZC1pdGVtLXRleHQtY29sb3ItYmxvY2stb2YteUF4aXMtMCI+NjpDYXJkaWFjIGRpc29yZGVyczwvdGV4dD48L2c+PGcgdHJhbnNmb3JtPSJ0cmFuc2xhdGUoMCwxODApIj48cmVjdCByeT0iMiIgcng9IjIiIHN0cm9rZS1vcGFjaXR5PSIxIiBzdHJva2Utd2lkdGg9IjAiIHN0cm9rZT0iIzAwMDAwMCIgZmlsbC1vcGFjaXR5PSIxIiBmaWxsPSIjY2NjY2NjIiBjbGFzcz0ibGVnZW5kLXJlY3Qtc3R5bGUtY29sb3ItYmxvY2stb2YteUF4aXMtMCIgaGVpZ2h0PSIwIiB3aWR0aD0iMCIgeD0iMCIvPjx0ZXh0IHhtbDpzcGFjZT0icHJlc2VydmUiIHg9Ii01IiBmb250LXN0eWxlPSJub3JtYWwiIHRleHQtYW5jaG9yPSJzdGFydCIgZm9udC13ZWlnaHQ9ImJvbGQiIGZpbGw9IiMwMDAwMDAiIGZvbnQtc2l6ZT0iMTYiIHk9IjAiIGR5PSIwLjNlbSIgY2xhc3M9ImxlZ2VuZC1pdGVtLXRleHQtY29sb3ItYmxvY2stb2YteUF4aXMtMCI+NzpJbW11bmUgc3lzdGVtIGRpc29yZGVyczwvdGV4dD48L2c+PGcgdHJhbnNmb3JtPSJ0cmFuc2xhdGUoMCwyMTApIj48cmVjdCByeT0iMiIgcng9IjIiIHN0cm9rZS1vcGFjaXR5PSIxIiBzdHJva2Utd2lkdGg9IjAiIHN0cm9rZT0iIzAwMDAwMCIgZmlsbC1vcGFjaXR5PSIxIiBmaWxsPSIjY2NjY2NjIiBjbGFzcz0ibGVnZW5kLXJlY3Qtc3R5bGUtY29sb3ItYmxvY2stb2YteUF4aXMtMCIgaGVpZ2h0PSIwIiB3aWR0aD0iMCIgeD0iMCIvPjx0ZXh0IHhtbDpzcGFjZT0icHJlc2VydmUiIHg9Ii01IiBmb250LXN0eWxlPSJub3JtYWwiIHRleHQtYW5jaG9yPSJzdGFydCIgZm9udC13ZWlnaHQ9ImJvbGQiIGZpbGw9IiMwMDAwMDAiIGZvbnQtc2l6ZT0iMTYiIHk9IjAiIGR5PSIwLjNlbSIgY2xhc3M9ImxlZ2VuZC1pdGVtLXRleHQtY29sb3ItYmxvY2stb2YteUF4aXMtMCI+ODpSZXNwaXJhdG9yeSwgdGhvcmFjaWMgYW5kIG1lZGlhc3RpbmFsIGRpc29yZGVyczwvdGV4dD48L2c+PGcgdHJhbnNmb3JtPSJ0cmFuc2xhdGUoMCwyNDApIj48cmVjdCByeT0iMiIgcng9IjIiIHN0cm9rZS1vcGFjaXR5PSIxIiBzdHJva2Utd2lkdGg9IjAiIHN0cm9rZT0iIzAwMDAwMCIgZmlsbC1vcGFjaXR5PSIxIiBmaWxsPSIjY2NjY2NjIiBjbGFzcz0ibGVnZW5kLXJlY3Qtc3R5bGUtY29sb3ItYmxvY2stb2YteUF4aXMtMCIgaGVpZ2h0PSIwIiB3aWR0aD0iMCIgeD0iMCIvPjx0ZXh0IHhtbDpzcGFjZT0icHJlc2VydmUiIHg9Ii01IiBmb250LXN0eWxlPSJub3JtYWwiIHRleHQtYW5jaG9yPSJzdGFydCIgZm9udC13ZWlnaHQ9ImJvbGQiIGZpbGw9IiMwMDAwMDAiIGZvbnQtc2l6ZT0iMTYiIHk9IjAiIGR5PSIwLjNlbSIgY2xhc3M9ImxlZ2VuZC1pdGVtLXRleHQtY29sb3ItYmxvY2stb2YteUF4aXMtMCI+OTpJbnZlc3RpZ2F0aW9uczwvdGV4dD48L2c+PGcgdHJhbnNmb3JtPSJ0cmFuc2xhdGUoMCwyNzApIj48cmVjdCByeT0iMiIgcng9IjIiIHN0cm9rZS1vcGFjaXR5PSIxIiBzdHJva2Utd2lkdGg9IjAiIHN0cm9rZT0iIzAwMDAwMCIgZmlsbC1vcGFjaXR5PSIxIiBmaWxsPSIjY2NjY2NjIiBjbGFzcz0ibGVnZW5kLXJlY3Qtc3R5bGUtY29sb3ItYmxvY2stb2YteUF4aXMtMCIgaGVpZ2h0PSIwIiB3aWR0aD0iMCIgeD0iMCIvPjx0ZXh0IHhtbDpzcGFjZT0icHJlc2VydmUiIHg9Ii01IiBmb250LXN0eWxlPSJub3JtYWwiIHRleHQtYW5jaG9yPSJzdGFydCIgZm9udC13ZWlnaHQ9ImJvbGQiIGZpbGw9IiMwMDAwMDAiIGZvbnQtc2l6ZT0iMTYiIHk9IjAiIGR5PSIwLjNlbSIgY2xhc3M9ImxlZ2VuZC1pdGVtLXRleHQtY29sb3ItYmxvY2stb2YteUF4aXMtMCI+MTA6TWV0YWJvbGlzbSBhbmQgbnV0cml0aW9uIGRpc29yZGVyczwvdGV4dD48L2c+PGcgdHJhbnNmb3JtPSJ0cmFuc2xhdGUoMCwzMDApIj48cmVjdCByeT0iMiIgcng9IjIiIHN0cm9rZS1vcGFjaXR5PSIxIiBzdHJva2Utd2lkdGg9IjAiIHN0cm9rZT0iIzAwMDAwMCIgZmlsbC1vcGFjaXR5PSIxIiBmaWxsPSIjY2NjY2NjIiBjbGFzcz0ibGVnZW5kLXJlY3Qtc3R5bGUtY29sb3ItYmxvY2stb2YteUF4aXMtMCIgaGVpZ2h0PSIwIiB3aWR0aD0iMCIgeD0iMCIvPjx0ZXh0IHhtbDpzcGFjZT0icHJlc2VydmUiIHg9Ii01IiBmb250LXN0eWxlPSJub3JtYWwiIHRleHQtYW5jaG9yPSJzdGFydCIgZm9udC13ZWlnaHQ9ImJvbGQiIGZpbGw9IiMwMDAwMDAiIGZvbnQtc2l6ZT0iMTYiIHk9IjAiIGR5PSIwLjNlbSIgY2xhc3M9ImxlZ2VuZC1pdGVtLXRleHQtY29sb3ItYmxvY2stb2YteUF4aXMtMCI+MTE6UHN5Y2hpYXRyaWMgZGlzb3JkZXJzPC90ZXh0PjwvZz48ZyB0cmFuc2Zvcm09InRyYW5zbGF0ZSgwLDMzMCkiPjxyZWN0IHJ5PSIyIiByeD0iMiIgc3Ryb2tlLW9wYWNpdHk9IjEiIHN0cm9rZS13aWR0aD0iMCIgc3Ryb2tlPSIjMDAwMDAwIiBmaWxsLW9wYWNpdHk9IjEiIGZpbGw9IiNjY2NjY2MiIGNsYXNzPSJsZWdlbmQtcmVjdC1zdHlsZS1jb2xvci1ibG9jay1vZi15QXhpcy0wIiBoZWlnaHQ9IjAiIHdpZHRoPSIwIiB4PSIwIi8+PHRleHQgeG1sOnNwYWNlPSJwcmVzZXJ2ZSIgeD0iLTUiIGZvbnQtc3R5bGU9Im5vcm1hbCIgdGV4dC1hbmNob3I9InN0YXJ0IiBmb250LXdlaWdodD0iYm9sZCIgZmlsbD0iIzAwMDAwMCIgZm9udC1zaXplPSIxNiIgeT0iMCIgZHk9IjAuM2VtIiBjbGFzcz0ibGVnZW5kLWl0ZW0tdGV4dC1jb2xvci1ibG9jay1vZi15QXhpcy0wIj4xMjpNdXNjdWxvc2tlbGV0YWwgYW5kIGNvbm5lY3RpdmUgdGlzc3VlIGRpc29yZGVyczwvdGV4dD48L2c+PGcgdHJhbnNmb3JtPSJ0cmFuc2xhdGUoMCwzNjApIj48cmVjdCByeT0iMiIgcng9IjIiIHN0cm9rZS1vcGFjaXR5PSIxIiBzdHJva2Utd2lkdGg9IjAiIHN0cm9rZT0iIzAwMDAwMCIgZmlsbC1vcGFjaXR5PSIxIiBmaWxsPSIjY2NjY2NjIiBjbGFzcz0ibGVnZW5kLXJlY3Qtc3R5bGUtY29sb3ItYmxvY2stb2YteUF4aXMtMCIgaGVpZ2h0PSIwIiB3aWR0aD0iMCIgeD0iMCIvPjx0ZXh0IHhtbDpzcGFjZT0icHJlc2VydmUiIHg9Ii01IiBmb250LXN0eWxlPSJub3JtYWwiIHRleHQtYW5jaG9yPSJzdGFydCIgZm9udC13ZWlnaHQ9ImJvbGQiIGZpbGw9IiMwMDAwMDAiIGZvbnQtc2l6ZT0iMTYiIHk9IjAiIGR5PSIwLjNlbSIgY2xhc3M9ImxlZ2VuZC1pdGVtLXRleHQtY29sb3ItYmxvY2stb2YteUF4aXMtMCI+MTM6SW5qdXJ5LCBwb2lzb25pbmcgYW5kIHByb2NlZHVyYWwgY29tcGxpY2F0aW9ucyA8L3RleHQ+PC9nPjxnIHRyYW5zZm9ybT0idHJhbnNsYXRlKDAsMzkwKSI+PHJlY3Qgcnk9IjIiIHJ4PSIyIiBzdHJva2Utb3BhY2l0eT0iMSIgc3Ryb2tlLXdpZHRoPSIwIiBzdHJva2U9IiMwMDAwMDAiIGZpbGwtb3BhY2l0eT0iMSIgZmlsbD0iI2NjY2NjYyIgY2xhc3M9ImxlZ2VuZC1yZWN0LXN0eWxlLWNvbG9yLWJsb2NrLW9mLXlBeGlzLTAiIGhlaWdodD0iMCIgd2lkdGg9IjAiIHg9IjAiLz48dGV4dCB4bWw6c3BhY2U9InByZXNlcnZlIiB4PSItNSIgZm9udC1zdHlsZT0ibm9ybWFsIiB0ZXh0LWFuY2hvcj0ic3RhcnQiIGZvbnQtd2VpZ2h0PSJib2xkIiBmaWxsPSIjMDAwMDAwIiBmb250LXNpemU9IjE2IiB5PSIwIiBkeT0iMC4zZW0iIGNsYXNzPSJsZWdlbmQtaXRlbS10ZXh0LWNvbG9yLWJsb2NrLW9mLXlBeGlzLTAiPjE0OkluZmVjdGlvbnMgYW5kIGluZmVzdGF0aW9uczwvdGV4dD48L2c+PGcgdHJhbnNmb3JtPSJ0cmFuc2xhdGUoMCw0MjApIj48cmVjdCByeT0iMiIgcng9IjIiIHN0cm9rZS1vcGFjaXR5PSIxIiBzdHJva2Utd2lkdGg9IjAiIHN0cm9rZT0iIzAwMDAwMCIgZmlsbC1vcGFjaXR5PSIxIiBmaWxsPSIjY2NjY2NjIiBjbGFzcz0ibGVnZW5kLXJlY3Qtc3R5bGUtY29sb3ItYmxvY2stb2YteUF4aXMtMCIgaGVpZ2h0PSIwIiB3aWR0aD0iMCIgeD0iMCIvPjx0ZXh0IHhtbDpzcGFjZT0icHJlc2VydmUiIHg9Ii01IiBmb250LXN0eWxlPSJub3JtYWwiIHRleHQtYW5jaG9yPSJzdGFydCIgZm9udC13ZWlnaHQ9ImJvbGQiIGZpbGw9IiMwMDAwMDAiIGZvbnQtc2l6ZT0iMTYiIHk9IjAiIGR5PSIwLjNlbSIgY2xhc3M9ImxlZ2VuZC1pdGVtLXRleHQtY29sb3ItYmxvY2stb2YteUF4aXMtMCI+MTU6UmVuYWwgYW5kIHVyaW5hcnkgZGlzb3JkZXJzPC90ZXh0PjwvZz48ZyB0cmFuc2Zvcm09InRyYW5zbGF0ZSgwLDQ1MCkiPjxyZWN0IHJ5PSIyIiByeD0iMiIgc3Ryb2tlLW9wYWNpdHk9IjEiIHN0cm9rZS13aWR0aD0iMCIgc3Ryb2tlPSIjMDAwMDAwIiBmaWxsLW9wYWNpdHk9IjEiIGZpbGw9IiNjY2NjY2MiIGNsYXNzPSJsZWdlbmQtcmVjdC1zdHlsZS1jb2xvci1ibG9jay1vZi15QXhpcy0wIiBoZWlnaHQ9IjAiIHdpZHRoPSIwIiB4PSIwIi8+PHRleHQgeG1sOnNwYWNlPSJwcmVzZXJ2ZSIgeD0iLTUiIGZvbnQtc3R5bGU9Im5vcm1hbCIgdGV4dC1hbmNob3I9InN0YXJ0IiBmb250LXdlaWdodD0iYm9sZCIgZmlsbD0iIzAwMDAwMCIgZm9udC1zaXplPSIxNiIgeT0iMCIgZHk9IjAuM2VtIiBjbGFzcz0ibGVnZW5kLWl0ZW0tdGV4dC1jb2xvci1ibG9jay1vZi15QXhpcy0wIj4xNjpCbG9vZCBhbmQgbHltcGhhdGljIHN5c3RlbSBkaXNvcmRlcnM8L3RleHQ+PC9nPjxnIHRyYW5zZm9ybT0idHJhbnNsYXRlKDAsNDgwKSI+PHJlY3Qgcnk9IjIiIHJ4PSIyIiBzdHJva2Utb3BhY2l0eT0iMSIgc3Ryb2tlLXdpZHRoPSIwIiBzdHJva2U9IiMwMDAwMDAiIGZpbGwtb3BhY2l0eT0iMSIgZmlsbD0iI2NjY2NjYyIgY2xhc3M9ImxlZ2VuZC1yZWN0LXN0eWxlLWNvbG9yLWJsb2NrLW9mLXlBeGlzLTAiIGhlaWdodD0iMCIgd2lkdGg9IjAiIHg9IjAiLz48dGV4dCB4bWw6c3BhY2U9InByZXNlcnZlIiB4PSItNSIgZm9udC1zdHlsZT0ibm9ybWFsIiB0ZXh0LWFuY2hvcj0ic3RhcnQiIGZvbnQtd2VpZ2h0PSJib2xkIiBmaWxsPSIjMDAwMDAwIiBmb250LXNpemU9IjE2IiB5PSIwIiBkeT0iMC4zZW0iIGNsYXNzPSJsZWdlbmQtaXRlbS10ZXh0LWNvbG9yLWJsb2NrLW9mLXlBeGlzLTAiPjE3OkV5ZSBkaXNvcmRlcnMgPC90ZXh0PjwvZz48ZyB0cmFuc2Zvcm09InRyYW5zbGF0ZSgwLDUxMCkiPjxyZWN0IHJ5PSIyIiByeD0iMiIgc3Ryb2tlLW9wYWNpdHk9IjEiIHN0cm9rZS13aWR0aD0iMCIgc3Ryb2tlPSIjMDAwMDAwIiBmaWxsLW9wYWNpdHk9IjEiIGZpbGw9IiNjY2NjY2MiIGNsYXNzPSJsZWdlbmQtcmVjdC1zdHlsZS1jb2xvci1ibG9jay1vZi15QXhpcy0wIiBoZWlnaHQ9IjAiIHdpZHRoPSIwIiB4PSIwIi8+PHRleHQgeG1sOnNwYWNlPSJwcmVzZXJ2ZSIgeD0iLTUiIGZvbnQtc3R5bGU9Im5vcm1hbCIgdGV4dC1hbmNob3I9InN0YXJ0IiBmb250LXdlaWdodD0iYm9sZCIgZmlsbD0iIzAwMDAwMCIgZm9udC1zaXplPSIxNiIgeT0iMCIgZHk9IjAuM2VtIiBjbGFzcz0ibGVnZW5kLWl0ZW0tdGV4dC1jb2xvci1ibG9jay1vZi15QXhpcy0wIj4xODpIZXBhdG9iaWxpYXJ5IGRpc29yZGVyczwvdGV4dD48L2c+PGcgdHJhbnNmb3JtPSJ0cmFuc2xhdGUoMCw1NDApIj48cmVjdCByeT0iMiIgcng9IjIiIHN0cm9rZS1vcGFjaXR5PSIxIiBzdHJva2Utd2lkdGg9IjAiIHN0cm9rZT0iIzAwMDAwMCIgZmlsbC1vcGFjaXR5PSIxIiBmaWxsPSIjY2NjY2NjIiBjbGFzcz0ibGVnZW5kLXJlY3Qtc3R5bGUtY29sb3ItYmxvY2stb2YteUF4aXMtMCIgaGVpZ2h0PSIwIiB3aWR0aD0iMCIgeD0iMCIvPjx0ZXh0IHhtbDpzcGFjZT0icHJlc2VydmUiIHg9Ii01IiBmb250LXN0eWxlPSJub3JtYWwiIHRleHQtYW5jaG9yPSJzdGFydCIgZm9udC13ZWlnaHQ9ImJvbGQiIGZpbGw9IiMwMDAwMDAiIGZvbnQtc2l6ZT0iMTYiIHk9IjAiIGR5PSIwLjNlbSIgY2xhc3M9ImxlZ2VuZC1pdGVtLXRleHQtY29sb3ItYmxvY2stb2YteUF4aXMtMCI+MTk6UmVwcm9kdWN0aXZlIHN5c3RlbSBhbmQgYnJlYXN0IGRpc29yZGVyczwvdGV4dD48L2c+PGcgdHJhbnNmb3JtPSJ0cmFuc2xhdGUoMCw1NzApIj48cmVjdCByeT0iMiIgcng9IjIiIHN0cm9rZS1vcGFjaXR5PSIxIiBzdHJva2Utd2lkdGg9IjAiIHN0cm9rZT0iIzAwMDAwMCIgZmlsbC1vcGFjaXR5PSIxIiBmaWxsPSIjY2NjY2NjIiBjbGFzcz0ibGVnZW5kLXJlY3Qtc3R5bGUtY29sb3ItYmxvY2stb2YteUF4aXMtMCIgaGVpZ2h0PSIwIiB3aWR0aD0iMCIgeD0iMCIvPjx0ZXh0IHhtbDpzcGFjZT0icHJlc2VydmUiIHg9Ii01IiBmb250LXN0eWxlPSJub3JtYWwiIHRleHQtYW5jaG9yPSJzdGFydCIgZm9udC13ZWlnaHQ9ImJvbGQiIGZpbGw9IiMwMDAwMDAiIGZvbnQtc2l6ZT0iMTYiIHk9IjAiIGR5PSIwLjNlbSIgY2xhc3M9ImxlZ2VuZC1pdGVtLXRleHQtY29sb3ItYmxvY2stb2YteUF4aXMtMCI+MjA6RW5kb2NyaW5lIGRpc29yZGVyczwvdGV4dD48L2c+PGcgdHJhbnNmb3JtPSJ0cmFuc2xhdGUoMCw2MDApIj48cmVjdCByeT0iMiIgcng9IjIiIHN0cm9rZS1vcGFjaXR5PSIxIiBzdHJva2Utd2lkdGg9IjAiIHN0cm9rZT0iIzAwMDAwMCIgZmlsbC1vcGFjaXR5PSIxIiBmaWxsPSIjY2NjY2NjIiBjbGFzcz0ibGVnZW5kLXJlY3Qtc3R5bGUtY29sb3ItYmxvY2stb2YteUF4aXMtMCIgaGVpZ2h0PSIwIiB3aWR0aD0iMCIgeD0iMCIvPjx0ZXh0IHhtbDpzcGFjZT0icHJlc2VydmUiIHg9Ii01IiBmb250LXN0eWxlPSJub3JtYWwiIHRleHQtYW5jaG9yPSJzdGFydCIgZm9udC13ZWlnaHQ9ImJvbGQiIGZpbGw9IiMwMDAwMDAiIGZvbnQtc2l6ZT0iMTYiIHk9IjAiIGR5PSIwLjNlbSIgY2xhc3M9ImxlZ2VuZC1pdGVtLXRleHQtY29sb3ItYmxvY2stb2YteUF4aXMtMCI+MjE6RWFyIGFuZCBsYWJ5cmludGggZGlzb3JkZXJzPC90ZXh0PjwvZz48ZyB0cmFuc2Zvcm09InRyYW5zbGF0ZSgwLDYzMCkiPjxyZWN0IHJ5PSIyIiByeD0iMiIgc3Ryb2tlLW9wYWNpdHk9IjEiIHN0cm9rZS13aWR0aD0iMCIgc3Ryb2tlPSIjMDAwMDAwIiBmaWxsLW9wYWNpdHk9IjEiIGZpbGw9IiNjY2NjY2MiIGNsYXNzPSJsZWdlbmQtcmVjdC1zdHlsZS1jb2xvci1ibG9jay1vZi15QXhpcy0wIiBoZWlnaHQ9IjAiIHdpZHRoPSIwIiB4PSIwIi8+PHRleHQgeG1sOnNwYWNlPSJwcmVzZXJ2ZSIgeD0iLTUiIGZvbnQtc3R5bGU9Im5vcm1hbCIgdGV4dC1hbmNob3I9InN0YXJ0IiBmb250LXdlaWdodD0iYm9sZCIgZmlsbD0iIzAwMDAwMCIgZm9udC1zaXplPSIxNiIgeT0iMCIgZHk9IjAuM2VtIiBjbGFzcz0ibGVnZW5kLWl0ZW0tdGV4dC1jb2xvci1ibG9jay1vZi15QXhpcy0wIj4yMjpOZW9wbGFzbXMgYmVuaWduLCBtYWxpZ25hbnQgYW5kIHVuc3BlY2lmaWVkIChpbmNsIGN5c3RzIGFuZCBwb2x5cHMpPC90ZXh0PjwvZz48ZyB0cmFuc2Zvcm09InRyYW5zbGF0ZSgwLDY2MCkiPjxyZWN0IHJ5PSIyIiByeD0iMiIgc3Ryb2tlLW9wYWNpdHk9IjEiIHN0cm9rZS13aWR0aD0iMCIgc3Ryb2tlPSIjMDAwMDAwIiBmaWxsLW9wYWNpdHk9IjEiIGZpbGw9IiNjY2NjY2MiIGNsYXNzPSJsZWdlbmQtcmVjdC1zdHlsZS1jb2xvci1ibG9jay1vZi15QXhpcy0wIiBoZWlnaHQ9IjAiIHdpZHRoPSIwIiB4PSIwIi8+PHRleHQgeG1sOnNwYWNlPSJwcmVzZXJ2ZSIgeD0iLTUiIGZvbnQtc3R5bGU9Im5vcm1hbCIgdGV4dC1hbmNob3I9InN0YXJ0IiBmb250LXdlaWdodD0iYm9sZCIgZmlsbD0iIzAwMDAwMCIgZm9udC1zaXplPSIxNiIgeT0iMCIgZHk9IjAuM2VtIiBjbGFzcz0ibGVnZW5kLWl0ZW0tdGV4dC1jb2xvci1ibG9jay1vZi15QXhpcy0wIj4yMzpQcmVnbmFuY3ksIHB1ZXJwZXJpdW0gYW5kIHBlcmluYXRhbCBjb25kaXRpb25zPC90ZXh0PjwvZz48ZyB0cmFuc2Zvcm09InRyYW5zbGF0ZSgwLDY5MCkiPjxyZWN0IHJ5PSIyIiByeD0iMiIgc3Ryb2tlLW9wYWNpdHk9IjEiIHN0cm9rZS13aWR0aD0iMCIgc3Ryb2tlPSIjMDAwMDAwIiBmaWxsLW9wYWNpdHk9IjEiIGZpbGw9IiNjY2NjY2MiIGNsYXNzPSJsZWdlbmQtcmVjdC1zdHlsZS1jb2xvci1ibG9jay1vZi15QXhpcy0wIiBoZWlnaHQ9IjAiIHdpZHRoPSIwIiB4PSIwIi8+PHRleHQgeG1sOnNwYWNlPSJwcmVzZXJ2ZSIgeD0iLTUiIGZvbnQtc3R5bGU9Im5vcm1hbCIgdGV4dC1hbmNob3I9InN0YXJ0IiBmb250LXdlaWdodD0iYm9sZCIgZmlsbD0iIzAwMDAwMCIgZm9udC1zaXplPSIxNiIgeT0iMCIgZHk9IjAuM2VtIiBjbGFzcz0ibGVnZW5kLWl0ZW0tdGV4dC1jb2xvci1ibG9jay1vZi15QXhpcy0wIj4yNDpDb25nZW5pdGFsLCBmYW1pbGlhbCBhbmQgZ2VuZXRpYyBkaXNvcmRlcnM8L3RleHQ+PC9nPjxnIHRyYW5zZm9ybT0idHJhbnNsYXRlKDAsNzIwKSI+PHJlY3Qgcnk9IjIiIHJ4PSIyIiBzdHJva2Utb3BhY2l0eT0iMSIgc3Ryb2tlLXdpZHRoPSIwIiBzdHJva2U9IiMwMDAwMDAiIGZpbGwtb3BhY2l0eT0iMSIgZmlsbD0iI2NjY2NjYyIgY2xhc3M9ImxlZ2VuZC1yZWN0LXN0eWxlLWNvbG9yLWJsb2NrLW9mLXlBeGlzLTAiIGhlaWdodD0iMCIgd2lkdGg9IjAiIHg9IjAiLz48dGV4dCB4bWw6c3BhY2U9InByZXNlcnZlIiB4PSItNSIgZm9udC1zdHlsZT0ibm9ybWFsIiB0ZXh0LWFuY2hvcj0ic3RhcnQiIGZvbnQtd2VpZ2h0PSJib2xkIiBmaWxsPSIjMDAwMDAwIiBmb250LXNpemU9IjE2IiB5PSIwIiBkeT0iMC4zZW0iIGNsYXNzPSJsZWdlbmQtaXRlbS10ZXh0LWNvbG9yLWJsb2NrLW9mLXlBeGlzLTAiPjI1OlN1cmdpY2FsIGFuZCBtZWRpY2FsIHByb2NlZHVyZXM8L3RleHQ+PC9nPjxnIHRyYW5zZm9ybT0idHJhbnNsYXRlKDAsNzUwKSI+PHJlY3Qgcnk9IjIiIHJ4PSIyIiBzdHJva2Utb3BhY2l0eT0iMSIgc3Ryb2tlLXdpZHRoPSIwIiBzdHJva2U9IiMwMDAwMDAiIGZpbGwtb3BhY2l0eT0iMSIgZmlsbD0iI2NjY2NjYyIgY2xhc3M9ImxlZ2VuZC1yZWN0LXN0eWxlLWNvbG9yLWJsb2NrLW9mLXlBeGlzLTAiIGhlaWdodD0iMCIgd2lkdGg9IjAiIHg9IjAiLz48dGV4dCB4bWw6c3BhY2U9InByZXNlcnZlIiB4PSItNSIgZm9udC1zdHlsZT0ibm9ybWFsIiB0ZXh0LWFuY2hvcj0ic3RhcnQiIGZvbnQtd2VpZ2h0PSJib2xkIiBmaWxsPSIjMDAwMDAwIiBmb250LXNpemU9IjE2IiB5PSIwIiBkeT0iMC4zZW0iIGNsYXNzPSJsZWdlbmQtaXRlbS10ZXh0LWNvbG9yLWJsb2NrLW9mLXlBeGlzLTAiPjI2OlNvY2lhbCBjaXJjdW1zdGFuY2VzPC90ZXh0PjwvZz48ZyB0cmFuc2Zvcm09InRyYW5zbGF0ZSgwLDc4MCkiPjxyZWN0IHJ5PSIyIiByeD0iMiIgc3Ryb2tlLW9wYWNpdHk9IjEiIHN0cm9rZS13aWR0aD0iMCIgc3Ryb2tlPSIjMDAwMDAwIiBmaWxsLW9wYWNpdHk9IjEiIGZpbGw9IiNjY2NjY2MiIGNsYXNzPSJsZWdlbmQtcmVjdC1zdHlsZS1jb2xvci1ibG9jay1vZi15QXhpcy0wIiBoZWlnaHQ9IjAiIHdpZHRoPSIwIiB4PSIwIi8+PHRleHQgeG1sOnNwYWNlPSJwcmVzZXJ2ZSIgeD0iLTUiIGZvbnQtc3R5bGU9Im5vcm1hbCIgdGV4dC1hbmNob3I9InN0YXJ0IiBmb250LXdlaWdodD0iYm9sZCIgZmlsbD0iIzAwMDAwMCIgZm9udC1zaXplPSIxNiIgeT0iMCIgZHk9IjAuM2VtIiBjbGFzcz0ibGVnZW5kLWl0ZW0tdGV4dC1jb2xvci1ibG9jay1vZi15QXhpcy0wIj4yNzpQcm9kdWN0IGlzc3VlczwvdGV4dD48L2c+PC9nPjwvZz48ZyBjbGFzcz0iIiB0ZXh0LWFuY2hvcj0ic3RhcnQiIHRyYW5zZm9ybT0idHJhbnNsYXRlKDcyMS44NjYyMTA5Mzc1LDY5LjAxNDg1MjUyMzgwMzcxKSI+PHRleHQgeG1sOnNwYWNlPSJwcmVzZXJ2ZSIgeT0iLTEwIiB4PSIwIiBmb250LXN0eWxlPSJub3JtYWwiIHRleHQtYW5jaG9yPSJzdGFydCIgZm9udC13ZWlnaHQ9ImJvbGQiIGZpbGw9IiMwMDAwMDAiIGZvbnQtc2l6ZT0iMTQiIGNsYXNzPSJsZWdlbmQtdGl0bGUtdGV4dC0iLz48ZyB0cmFuc2Zvcm09InRyYW5zbGF0ZSgwLDApIj48ZyB0cmFuc2Zvcm09InRyYW5zbGF0ZSgwLDApIj48cmVjdCByeT0iMSIgcng9IjEiIHN0cm9rZS1vcGFjaXR5PSIwIiBzdHJva2Utd2lkdGg9IjAiIHN0cm9rZT0iIzAwMDAwMCIgZmlsbC1vcGFjaXR5PSIxIiBmaWxsPSIjNjZjMmE1IiBjbGFzcz0ibGVnZW5kLXJlY3Qtc3R5bGUtIiBoZWlnaHQ9IjEyIiB3aWR0aD0iMTIiIHg9Ii0xMiIvPjx0ZXh0IHhtbDpzcGFjZT0icHJlc2VydmUiIHg9IjEiIGZvbnQtc3R5bGU9Im5vcm1hbCIgdGV4dC1hbmNob3I9InN0YXJ0IiBmb250LXdlaWdodD0iYm9sZCIgZmlsbD0iIzAwMDAwMCIgZm9udC1zaXplPSIxNSIgeT0iNiIgZHk9IjAuM2VtIiBjbGFzcz0ibGVnZW5kLWl0ZW0tdGV4dC0iPm5lZ2F0aXZlPC90ZXh0PjwvZz48L2c+PGcgdHJhbnNmb3JtPSJ0cmFuc2xhdGUoODMuOTk4MDQ2ODc1LDApIj48ZyB0cmFuc2Zvcm09InRyYW5zbGF0ZSgwLDApIj48cmVjdCByeT0iMSIgcng9IjEiIHN0cm9rZS1vcGFjaXR5PSIwIiBzdHJva2Utd2lkdGg9IjAiIHN0cm9rZT0iIzAwMDAwMCIgZmlsbC1vcGFjaXR5PSIxIiBmaWxsPSIjZmM4ZDYyIiBjbGFzcz0ibGVnZW5kLXJlY3Qtc3R5bGUtIiBoZWlnaHQ9IjEyIiB3aWR0aD0iMTIiIHg9Ii0xMiIvPjx0ZXh0IHhtbDpzcGFjZT0icHJlc2VydmUiIHg9IjEiIGZvbnQtc3R5bGU9Im5vcm1hbCIgdGV4dC1hbmNob3I9InN0YXJ0IiBmb250LXdlaWdodD0iYm9sZCIgZmlsbD0iIzAwMDAwMCIgZm9udC1zaXplPSIxNSIgeT0iNiIgZHk9IjAuM2VtIiBjbGFzcz0ibGVnZW5kLWl0ZW0tdGV4dC0iPnBvc2l0aXZlPC90ZXh0PjwvZz48L2c+PC9nPjwvZz48L3N2Zz4=;" vertex="1" parent="1">
          <mxGeometry width="520" height="398" as="geometry" />
        </mxCell>
        <mxCell id="yJTz65Xfa_eojXtFd_zr-4" value="&lt;font style=&quot;font-size: 6px;&quot;&gt;52&lt;/font&gt;" style="whiteSpace=wrap;html=1;fontFamily=Helvetica;fontSize=11;" vertex="1" parent="1">
          <mxGeometry x="300" y="380" width="30" height="20" as="geometry" />
        </mxCell>
      </root>
    </mxGraphModel>
  </diagram>
</mxfile>
